<?xml version="1.0" encoding="UTF-8"?>
<svg id="Layer_1" xmlns="http://www.w3.org/2000/svg" xmlns:xlink="http://www.w3.org/1999/xlink" version="1.1" viewBox="0 0 1080 393.5">
  <defs>
    <style>
      .st0 {
        fill: #a56b3f;
      }

      .st1 {
        fill: url(#linear-gradient2);
      }

      .st2 {
        fill: url(#linear-gradient1);
      }

      .st3 {
        fill: url(#linear-gradient9);
      }

      .st4 {
        fill: url(#linear-gradient3);
      }

      .st5 {
        fill: url(#linear-gradient6);
      }

      .st6 {
        fill: url(#linear-gradient8);
      }

      .st7 {
        fill: url(#linear-gradient7);
      }

      .st8 {
        fill: url(#linear-gradient5);
      }

      .st9 {
        fill: url(#linear-gradient4);
      }

      .st10 {
        fill: url(#linear-gradient13);
      }

      .st11 {
        fill: url(#linear-gradient12);
      }

      .st12 {
        fill: url(#linear-gradient11);
      }

      .st13 {
        fill: url(#linear-gradient10);
      }

      .st14 {
        fill: url(#linear-gradient14);
      }

      .st15 {
        fill: #ffffff;
      }

      .st16 {
        fill: url(#linear-gradient);
      }

      .st17 {
        fill: #ebd8af;
      }

      .st18 {
        clip-path: url(#clippath-11);
      }

      .st19 {
        clip-path: url(#clippath-10);
      }

      .st20 {
        clip-path: url(#clippath-13);
      }

      .st21 {
        clip-path: url(#clippath-14);
      }

      .st22 {
        clip-path: url(#clippath-12);
      }

      .st23 {
        clip-path: url(#clippath-1);
      }

      .st24 {
        clip-path: url(#clippath-3);
      }

      .st25 {
        clip-path: url(#clippath-4);
      }

      .st26 {
        clip-path: url(#clippath-2);
      }

      .st27 {
        clip-path: url(#clippath-7);
      }

      .st28 {
        clip-path: url(#clippath-6);
      }

      .st29 {
        clip-path: url(#clippath-9);
      }

      .st30 {
        clip-path: url(#clippath-8);
      }

      .st31 {
        clip-path: url(#clippath-5);
      }

      .st32 {
        clip-rule: evenodd;
        fill: none;
      }

      .st33 {
        fill: #fcf5da;
      }

      .st34 {
        clip-path: url(#clippath);
      }
    </style>
    <clipPath id="clippath">
      <path class="st32" d="M344.3,187.3v-7.7c0-18.8-15.3-34.2-34.2-34.2h-49.3v-16.8h-7.8v59.7l-16.8-16.7v-92.2c0-18.8-15.3-34.2-34.2-34.2h-7.7c-18.8,0-34.2,15.3-34.2,34.2v16.7l-16.8-16.7v9.7l33,32.8,76.6,76.1h0s23.5,23.3,23.5,23.3h0s0,0,0,0h9.1,0s0,0,0,0h24.5c18.8,0,34.2-15.3,34.2-34.2"/>
    </clipPath>
    <linearGradient id="linear-gradient" x1="143.6" y1="133.4" x2="344.3" y2="133.4" gradientUnits="userSpaceOnUse">
      <stop offset="0" stop-color="#331828"/>
      <stop offset=".5" stop-color="#6c2a37"/>
      <stop offset="1" stop-color="#331828"/>
    </linearGradient>
    <clipPath id="clippath-1">
      <path class="st32" d="M194.5,321.6h7.7c18.8,0,34.2-15.3,34.2-34.2v-25.8l16.8,16.7v-9.7l-16.9-16.8h0c0,0-75.8-75.4-75.8-75.4l-16.8-16.7-14.3-14.2h-9.1s-7.8,0-7.8,0h-28.2c-18.8,0-34.2,15.3-34.2,34.2v7.7c0,18.8,15.3,34.2,34.2,34.2h51.7v16.8h7.8v-68.8l16.8,16.7v101.3c0,18.8,15.3,34.2,34.2,34.2"/>
    </clipPath>
    <linearGradient id="linear-gradient1" x1="50" y1="233.6" x2="253.2" y2="233.6" xlink:href="#linear-gradient"/>
    <clipPath id="clippath-2">
      <path class="st32" d="M194.5,28.5c-28.2,0-51,22.8-51,50.9l16.8,16.7v-16.7c0-18.8,15.3-34.2,34.2-34.2h7.7c18.8,0,34.2,15.3,34.2,34.2v92.2l16.8,16.7v-108.9c0-28.2-22.8-51-51-51h-7.7Z"/>
    </clipPath>
    <linearGradient id="linear-gradient2" x1="198.4" y1="-15.5" x2="198.4" y2="157.1" gradientUnits="userSpaceOnUse">
      <stop offset="0" stop-color="#a56b3f"/>
      <stop offset=".5" stop-color="#fcf9d6"/>
      <stop offset="1" stop-color="#dfb680"/>
    </linearGradient>
    <clipPath id="clippath-3">
      <path class="st32" d="M143.6,169.5v118c0,28.2,22.8,51,51,51h7.7c28.2,0,51-22.8,51-51v-9l-16.8-16.7v25.8c0,18.8-15.3,34.2-34.2,34.2h-7.7c-18.8,0-34.2-15.3-34.2-34.2v-101.3l-16.8-16.7Z"/>
    </clipPath>
    <linearGradient id="linear-gradient3" x1="198.4" y1="192.2" x2="198.4" y2="356.6" gradientUnits="userSpaceOnUse">
      <stop offset="0" stop-color="#dfb680"/>
      <stop offset=".5" stop-color="#fcf9d6"/>
      <stop offset=".6" stop-color="#ede0bb"/>
      <stop offset=".7" stop-color="#d3b68f"/>
      <stop offset=".8" stop-color="#bf956c"/>
      <stop offset=".9" stop-color="#b07e53"/>
      <stop offset=".9" stop-color="#a86f44"/>
      <stop offset="1" stop-color="#a56b3f"/>
    </linearGradient>
    <clipPath id="clippath-4">
      <path class="st32" d="M361.2,187.3v-7.7c0-28.1-22.8-51-51-51h-49.3v16.8h49.3c18.8,0,34.2,15.3,34.2,34.2v7.7c0,18.8-15.3,34.2-34.2,34.2h-24.5s0,0,0,0h0-9.1s-23.5-23.3-23.5-23.3h0s9.7,9.7,9.7,9.7l-9.7-9.7-76.6-76.1-33-32.8v22.4l16.8,16.7.4.4,16.9,16.8,58.6,58.3,16.8,16.7,1,1,16.9,16.8h31.5,0s0,0,0,0h7.6c0,0,.2,0,.2,0,28-.1,50.7-22.9,50.7-51"/>
    </clipPath>
    <linearGradient id="linear-gradient4" x1="252.4" y1="86.3" x2="252.4" y2="259.3" gradientUnits="userSpaceOnUse">
      <stop offset="0" stop-color="#dfb680"/>
      <stop offset=".5" stop-color="#fcf9d6"/>
      <stop offset=".7" stop-color="#d6bc95"/>
      <stop offset=".8" stop-color="#bb9066"/>
      <stop offset=".9" stop-color="#ab7549"/>
      <stop offset="1" stop-color="#a56b3f"/>
    </linearGradient>
    <clipPath id="clippath-5">
      <path class="st32" d="M253.2,268.7v-22.4l-8.1-8.1-8.7-8.6-8.2-8.2-67.8-67.4-8.7-8.6-8.1-8.1-8.8-8.7h-50.7c-28.2,0-51,22.8-51,51v7.7c0,28.1,22.8,51,51,51h51.7v-16.8h-51.7c-18.8,0-34.2-15.3-34.2-34.2v-7.7c0-18.8,15.3-34.2,34.2-34.2h45.1s14.3,14.3,14.3,14.3h0s16.8,16.7,16.8,16.7h0s45.3,45,45.3,45l16.9,16.8,13.6,13.5h0c0,0,16.9,16.9,16.9,16.9Z"/>
    </clipPath>
    <linearGradient id="linear-gradient5" x1="143.2" y1="278.5" x2="143.2" y2="105.2" xlink:href="#linear-gradient2"/>
    <clipPath id="clippath-6">
      <polygon class="st32" points="143.6 111.5 143.6 137.4 253.2 246.4 253.2 220.5 143.6 111.5"/>
    </clipPath>
    <linearGradient id="linear-gradient6" y1="179" x2="253.2" y2="179" xlink:href="#linear-gradient"/>
    <clipPath id="clippath-7">
      <polygon class="st32" points="556.4 62.7 497.2 62.7 497.2 115.4 462.8 62.7 409.7 62.7 409.7 224.6 468.9 224.6 468.9 172.4 503.3 224.6 556.4 224.6 556.4 62.7"/>
    </clipPath>
    <linearGradient id="linear-gradient7" x1="483" y1="56.1" x2="483" y2="235" gradientUnits="userSpaceOnUse">
      <stop offset="0" stop-color="#a56b3f"/>
      <stop offset=".2" stop-color="#fcf9d6"/>
      <stop offset="1" stop-color="#dfb680"/>
    </linearGradient>
    <clipPath id="clippath-8">
      <polygon class="st32" points="543.2 75.9 510.4 75.9 510.4 159.8 455.6 75.9 422.9 75.9 422.9 211.4 455.6 211.4 455.6 128.2 510.4 211.4 543.2 211.4 543.2 75.9"/>
    </clipPath>
    <linearGradient id="linear-gradient8" x1="483" y1="70.5" x2="483" y2="220" xlink:href="#linear-gradient"/>
    <clipPath id="clippath-9">
      <polygon class="st32" points="604.1 63.7 544.7 224.6 607.6 224.6 616 199.9 647.9 199.9 656.3 224.6 719.6 224.6 660.2 63.7 604.1 63.7"/>
    </clipPath>
    <linearGradient id="linear-gradient9" x1="632.2" y1="55.9" x2="632.2" y2="235" gradientUnits="userSpaceOnUse">
      <stop offset="0" stop-color="#a56b3f"/>
      <stop offset=".2" stop-color="#fcf9d6"/>
      <stop offset="1" stop-color="#dfb680"/>
    </linearGradient>
    <clipPath id="clippath-10">
      <path class="st32" d="M632.1,112l16.9,49.8h-33.9l17.1-49.8ZM613.3,76.9l-49.6,134.5h34.5l8.4-24.7h50.8l8.4,24.7h34.9l-49.6-134.5h-37.7Z"/>
    </clipPath>
    <linearGradient id="linear-gradient10" x1="632.2" y1="70.5" x2="632.2" y2="220" xlink:href="#linear-gradient"/>
    <clipPath id="clippath-11">
      <path class="st32" d="M766.9,117.9h2.3c9.3,0,16.1,2.1,20.6,6.5,4.4,4.2,6.5,10.4,6.5,19s-2.1,14.8-6.5,19c-4.6,4.4-11.3,6.5-20.6,6.5h-2.3v-50.9ZM772.1,62.7h-64.4v161.9h64.4c16.6,0,31.3-3.4,43.9-10.2,12.9-6.9,22.9-16.8,29.8-29.3,6.8-12.2,10.2-26.3,10.2-41.7s-3.4-29.5-10.2-41.7c-6.9-12.4-16.9-22.2-29.8-29-12.5-6.6-27.3-10-43.9-10Z"/>
    </clipPath>
    <linearGradient id="linear-gradient11" x1="781.9" y1="56.1" x2="781.9" y2="235" gradientUnits="userSpaceOnUse">
      <stop offset="0" stop-color="#a56b3f"/>
      <stop offset=".2" stop-color="#fcf9d6"/>
      <stop offset="1" stop-color="#dfb680"/>
    </linearGradient>
    <clipPath id="clippath-12">
      <path class="st32" d="M753.7,104.7h15.5c12.8,0,22.7,3.4,29.8,10.2,7.1,6.8,10.6,16.3,10.6,28.5s-3.5,21.8-10.6,28.5c-7.1,6.8-17,10.2-29.8,10.2h-15.5v-77.4ZM772.1,75.9h-51.1v135.4h51.1c14.4,0,27-2.9,37.6-8.6,10.7-5.7,18.8-13.8,24.5-24,5.7-10.3,8.5-22.1,8.5-35.3s-2.8-25-8.5-35.2c-5.7-10.2-13.8-18.1-24.4-23.8-10.6-5.6-23.2-8.4-37.7-8.4Z"/>
    </clipPath>
    <linearGradient id="linear-gradient12" x1="781.9" y1="70.5" x2="781.9" y2="220" xlink:href="#linear-gradient"/>
    <clipPath id="clippath-13">
      <polygon class="st32" points="967.1 224.6 967.1 171.7 919.6 171.7 966.7 105 966.7 62.7 845.2 62.7 845.2 115.4 891.1 115.4 844.5 182.3 844.5 224.6 967.1 224.6"/>
    </clipPath>
    <linearGradient id="linear-gradient13" x1="905.8" y1="56.1" x2="905.8" y2="235" gradientUnits="userSpaceOnUse">
      <stop offset="0" stop-color="#a56b3f"/>
      <stop offset=".2" stop-color="#fcf9d6"/>
      <stop offset="1" stop-color="#dfb680"/>
    </linearGradient>
    <clipPath id="clippath-14">
      <polygon class="st32" points="953.9 211.4 953.9 184.9 894.1 184.9 953.5 100.8 953.5 75.9 858.5 75.9 858.5 102.2 916.5 102.2 857.7 186.5 857.7 211.4 953.9 211.4"/>
    </clipPath>
    <linearGradient id="linear-gradient14" x1="905.8" y1="70.5" x2="905.8" y2="220" xlink:href="#linear-gradient"/>
  </defs>
  <polygon class="st15" points="580.5 251.6 580.5 275.3 574.7 275.3 574.7 265.4 565.7 265.4 565.7 275.3 560 275.3 560 251.6 565.7 251.6 565.7 260.8 574.7 260.8 574.7 251.6 580.5 251.6"/>
  <polygon class="st15" points="593.6 256.1 593.6 261.1 601.6 261.1 601.6 265.4 593.6 265.4 593.6 270.7 602.6 270.7 602.6 275.3 587.8 275.3 587.8 251.6 602.6 251.6 602.6 256.1 593.6 256.1"/>
  <path class="st15" d="M623.9,271h-8.9l-1.5,4.3h-6l8.7-23.6h6.6l8.7,23.6h-6.1l-1.5-4.3ZM622.4,266.6l-3-8.7-3,8.7h5.9Z"/>
  <polygon class="st15" points="642.8 270.9 650.5 270.9 650.5 275.3 637.1 275.3 637.1 251.6 642.8 251.6 642.8 270.9"/>
  <polygon class="st15" points="673.5 251.6 673.5 256.1 667.1 256.1 667.1 275.3 661.3 275.3 661.3 256.1 654.9 256.1 654.9 251.6 673.5 251.6"/>
  <polygon class="st15" points="699.8 251.6 699.8 275.3 694 275.3 694 265.4 685 265.4 685 275.3 679.3 275.3 679.3 251.6 685 251.6 685 260.8 694 260.8 694 251.6 699.8 251.6"/>
  <path class="st15" d="M725.5,253.7c2,1.6,3.3,3.7,3.8,6.4h-6.1c-.5-1.1-1.1-2-2.1-2.6-.9-.6-2-.9-3.3-.9s-3,.6-4.1,1.8c-1,1.2-1.5,2.9-1.5,4.9s.5,3.7,1.5,4.9c1,1.2,2.4,1.8,4.1,1.8s2.4-.3,3.3-.9c.9-.6,1.6-1.5,2.1-2.6h6.1c-.6,2.7-1.9,4.8-3.8,6.4-2,1.6-4.5,2.4-7.5,2.4s-4.3-.5-6.1-1.5c-1.7-1-3.1-2.4-4-4.3-1-1.8-1.4-3.9-1.4-6.3s.5-4.4,1.4-6.3c.9-1.8,2.3-3.3,4-4.3,1.7-1,3.8-1.5,6.1-1.5s5.5.8,7.5,2.4"/>
  <path class="st15" d="M750.6,271h-8.9l-1.5,4.3h-6l8.7-23.6h6.6l8.7,23.6h-6.1l-1.5-4.3ZM749.1,266.6l-3-8.7-3,8.7h5.9Z"/>
  <path class="st15" d="M775.9,275.3l-5.1-9h-1.3v9h-5.7v-23.7h9.8c1.9,0,3.5.3,4.8,1,1.3.6,2.3,1.5,2.9,2.7.6,1.1,1,2.4,1,3.9s-.5,3.2-1.4,4.4c-1,1.2-2.3,2-4.1,2.5l5.6,9.3h-6.3ZM769.5,262.4h3.6c1.1,0,2-.3,2.5-.8.5-.5.8-1.2.8-2.2s-.3-1.7-.8-2.2c-.5-.5-1.4-.8-2.5-.8h-3.6v6Z"/>
  <polygon class="st15" points="794.2 256.1 794.2 261.1 802.2 261.1 802.2 265.4 794.2 265.4 794.2 270.7 803.2 270.7 803.2 275.3 788.5 275.3 788.5 251.6 803.2 251.6 803.2 256.1 794.2 256.1"/>
  <rect class="st15" x="402.9" y="261.3" width="135.5" height="4"/>
  <rect class="st15" x="824.8" y="261.3" width="135.5" height="4"/>
  <polygon class="st15" points="458.8 292.5 449.3 310.8 449.3 319.9 442.6 319.9 442.6 310.8 433.1 292.5 440.7 292.5 446 303.7 451.2 292.5 458.8 292.5"/>
  <path class="st15" d="M485.3,293.9c2.1,1.2,3.8,2.9,5,5,1.2,2.1,1.8,4.6,1.8,7.2s-.6,5.1-1.8,7.3c-1.2,2.1-2.9,3.8-5,5-2.1,1.2-4.4,1.8-7,1.8s-4.9-.6-7-1.8c-2.1-1.2-3.8-2.9-5-5-1.2-2.1-1.8-4.6-1.8-7.3s.6-5.1,1.8-7.2c1.2-2.1,2.9-3.8,5-5,2.1-1.2,4.4-1.8,7-1.8s4.9.6,7,1.8M473.1,300.3c-1.3,1.4-1.9,3.3-1.9,5.8s.6,4.3,1.9,5.7c1.3,1.4,3,2.1,5.2,2.1s3.9-.7,5.2-2.1,1.9-3.3,1.9-5.7-.6-4.3-1.9-5.7c-1.3-1.4-3-2.1-5.2-2.1s-3.9.7-5.2,2.1Z"/>
  <path class="st15" d="M506.2,292.5v15.8c0,1.8.4,3.2,1.2,4.2.8,1,2,1.4,3.6,1.4s2.7-.5,3.6-1.4c.8-1,1.2-2.3,1.2-4.2v-15.8h6.6v15.8c0,2.6-.5,4.8-1.5,6.5-1,1.8-2.4,3.1-4.1,4-1.7.9-3.7,1.3-5.9,1.3s-4.1-.4-5.8-1.3c-1.7-.9-3-2.2-4-4-1-1.8-1.4-4-1.4-6.6v-15.8h6.6Z"/>
  <path class="st15" d="M544.8,319.9l-5.9-10.4h-1.5v10.4h-6.6v-27.5h11.3c2.2,0,4,.4,5.5,1.1,1.5.8,2.6,1.8,3.4,3.1.8,1.3,1.1,2.8,1.1,4.5s-.5,3.7-1.6,5.1c-1.1,1.4-2.7,2.4-4.8,2.9l6.5,10.8h-7.3ZM537.3,305h4.1c1.3,0,2.3-.3,2.9-.9.6-.6.9-1.4.9-2.6s-.3-1.9-.9-2.6c-.6-.6-1.6-.9-2.9-.9h-4.1v6.9Z"/>
  <polygon class="st15" points="588.8 292.5 588.8 297.8 577.6 297.8 577.6 303.8 586.3 303.8 586.3 308.8 577.6 308.8 577.6 319.9 570.9 319.9 570.9 292.5 588.8 292.5"/>
  <path class="st15" d="M613.1,314.9h-10.3l-1.7,5h-7l10.1-27.3h7.6l10.1,27.3h-7.1l-1.7-5ZM611.4,309.9l-3.4-10.1-3.5,10.1h6.9Z"/>
  <polygon class="st15" points="659.2 292.7 659.2 319.9 652.6 319.9 652.6 302.9 646.7 319.9 640.9 319.9 635 302.9 635 319.9 628.4 319.9 628.4 292.7 636.5 292.7 643.9 311.7 651.2 292.7 659.2 292.7"/>
  <rect class="st15" x="667.7" y="292.5" width="6.6" height="27.5"/>
  <polygon class="st15" points="689.4 314.9 698.3 314.9 698.3 319.9 682.8 319.9 682.8 292.5 689.4 292.5 689.4 314.9"/>
  <polygon class="st15" points="729 292.5 719.5 310.8 719.5 319.9 712.8 319.9 712.8 310.8 703.3 292.5 710.9 292.5 716.2 303.7 721.4 292.5 729 292.5"/>
  <path class="st15" d="M770,313.3c-1.2,2.1-2.8,3.7-5,4.9-2.2,1.2-4.7,1.7-7.6,1.7h-10.4v-27.5h10.4c2.9,0,5.5.6,7.6,1.7,2.1,1.1,3.8,2.7,4.9,4.8,1.2,2.1,1.7,4.5,1.7,7.1s-.6,5.1-1.7,7.2M762.9,311.9c1.4-1.4,2.2-3.3,2.2-5.8s-.7-4.4-2.2-5.8c-1.4-1.4-3.5-2.1-6-2.1h-3.1v15.7h3.1c2.6,0,4.6-.7,6-2.1Z"/>
  <path class="st15" d="M799.5,293.9c2.1,1.2,3.8,2.9,5,5,1.2,2.1,1.8,4.6,1.8,7.2s-.6,5.1-1.8,7.3c-1.2,2.1-2.9,3.8-5,5-2.1,1.2-4.4,1.8-7,1.8s-4.9-.6-7-1.8c-2.1-1.2-3.8-2.9-5-5-1.2-2.1-1.8-4.6-1.8-7.3s.6-5.1,1.8-7.2c1.2-2.1,2.9-3.8,5-5,2.1-1.2,4.4-1.8,7-1.8s4.9.6,7,1.8M787.3,300.3c-1.3,1.4-1.9,3.3-1.9,5.8s.6,4.3,1.9,5.7c1.3,1.4,3,2.1,5.2,2.1s3.9-.7,5.2-2.1c1.3-1.4,1.9-3.3,1.9-5.7s-.6-4.3-1.9-5.7c-1.3-1.4-3-2.1-5.2-2.1s-3.9.7-5.2,2.1Z"/>
  <path class="st15" d="M835.2,295c2.3,1.8,3.8,4.3,4.4,7.5h-7c-.5-1.3-1.3-2.3-2.4-3-1.1-.7-2.4-1.1-3.8-1.1s-3.5.7-4.7,2.1c-1.2,1.4-1.8,3.3-1.8,5.7s.6,4.3,1.8,5.7c1.2,1.4,2.8,2.1,4.7,2.1s2.8-.4,3.8-1.1c1.1-.7,1.9-1.7,2.4-3h7c-.7,3.1-2.2,5.6-4.4,7.4-2.3,1.9-5.2,2.8-8.7,2.8s-5-.6-7-1.8c-2-1.2-3.6-2.8-4.7-4.9-1.1-2.1-1.7-4.5-1.7-7.3s.6-5.1,1.7-7.3c1.1-2.1,2.7-3.8,4.7-5,2-1.2,4.4-1.8,7-1.8s6.4.9,8.7,2.8"/>
  <polygon class="st15" points="866.9 292.5 866.9 297.8 859.5 297.8 859.5 319.9 852.8 319.9 852.8 297.8 845.4 297.8 845.4 292.5 866.9 292.5"/>
  <path class="st15" d="M893.7,293.9c2.1,1.2,3.8,2.9,5,5,1.2,2.1,1.8,4.6,1.8,7.2s-.6,5.1-1.8,7.3c-1.2,2.1-2.9,3.8-5,5-2.1,1.2-4.4,1.8-7,1.8s-4.9-.6-7-1.8c-2.1-1.2-3.8-2.9-5-5-1.2-2.1-1.8-4.6-1.8-7.3s.6-5.1,1.8-7.2c1.2-2.1,2.9-3.8,5-5,2.1-1.2,4.4-1.8,7-1.8s4.9.6,7,1.8M881.5,300.3c-1.3,1.4-1.9,3.3-1.9,5.8s.6,4.3,1.9,5.7c1.3,1.4,3,2.1,5.2,2.1s3.9-.7,5.2-2.1c1.3-1.4,1.9-3.3,1.9-5.7s-.6-4.3-1.9-5.7c-1.3-1.4-3-2.1-5.2-2.1s-3.9.7-5.2,2.1Z"/>
  <path class="st15" d="M922.2,319.9l-5.9-10.4h-1.5v10.4h-6.6v-27.5h11.3c2.2,0,4,.4,5.5,1.1,1.5.8,2.6,1.8,3.4,3.1.8,1.3,1.1,2.8,1.1,4.5s-.6,3.7-1.7,5.1c-1.1,1.4-2.7,2.4-4.8,2.9l6.5,10.8h-7.3ZM914.8,305h4.1c1.3,0,2.3-.3,2.9-.9.6-.6.9-1.4.9-2.6s-.3-1.9-1-2.6c-.6-.6-1.6-.9-2.9-.9h-4.1v6.9Z"/>
  <path class="st0" d="M310.2,134.3h-49.2v16.8h49.2c18.8,0,34.2,15.3,34.2,34.2v7.7c0,18.8-15.3,34.2-34.2,34.2h-24.5s0,0,0,0h-9.1s-23.5-23.3-23.5-23.3l9.7,9.7-9.7-9.7-76.6-76.1-33-32.8v22.4l16.8,16.7.4.4,16.9,16.8,58.6,58.3,16.8,16.7,1,1,16.9,16.8h31.5,0s0,0,0,0h7.6c0,0,.2,0,.2,0,28-.1,50.7-22.9,50.7-51v-7.7c0-28.1-22.8-51-51-51"/>
  <path class="st0" d="M236.4,235.3l-8.2-8.2-67.8-67.4-8.7-8.6-8.1-8.1-8.8-8.7h-50.7c-28.2,0-51,22.8-51,51v7.7c0,28.1,22.8,51,51,51h51.7v-16.8h-51.7c-18.8,0-34.2-15.3-34.2-34.2v-7.7c0-18.8,15.3-34.2,34.2-34.2h45.1s14.3,14.3,14.3,14.3h0s16.8,16.7,16.8,16.7h0s45.3,45,45.3,45l16.9,16.8,13.6,13.5h0c0,0,16.9,16.9,16.9,16.9v-22.4l-8.1-8.1-8.7-8.6Z"/>
  <path class="st0" d="M236.4,294.4c0,18.8-15.3,34.2-34.2,34.2h-7.7c-18.8,0-34.2-15.3-34.2-34.2v-101.3l-16.8-16.7v118c0,28.2,22.8,51,51,51h7.7c28.2,0,51-22.8,51-51v-9l-16.8-16.7v25.8Z"/>
  <g class="st34">
    <rect class="st16" x="143.6" y="45.4" width="200.8" height="176.1"/>
  </g>
  <g class="st23">
    <rect class="st2" x="50" y="145.5" width="203.2" height="176.1"/>
  </g>
  <polygon class="st33" points="160.4 105.9 183.3 128.7 200.2 145.5 236.4 181.4 160.4 105.9"/>
  <g class="st26">
    <rect class="st1" x="143.6" y="28.5" width="109.6" height="159.9"/>
  </g>
  <g class="st24">
    <rect class="st4" x="143.6" y="169.5" width="109.6" height="169"/>
  </g>
  <g class="st25">
    <rect class="st9" x="143.6" y="89.2" width="217.6" height="149.1"/>
  </g>
  <g class="st31">
    <rect class="st8" x="33.2" y="128.7" width="220" height="140"/>
  </g>
  <g class="st28">
    <rect class="st5" x="143.6" y="111.5" width="109.6" height="134.8"/>
  </g>
  <rect class="st0" x="190.9" y="78.3" width="15.7" height="15.7"/>
  <rect class="st0" x="190.9" y="280.3" width="15.7" height="15.7"/>
  <polygon class="st0" points="105.2 201.8 98.1 201.8 86.3 183.8 86.3 201.8 79.2 201.8 79.2 172.5 86.3 172.5 98.1 190.6 98.1 172.5 105.2 172.5 105.2 201.8"/>
  <path class="st0" d="M313.2,194.7c-1.2,2.2-3,4-5.3,5.2-2.3,1.2-5,1.9-8.1,1.9h-11.1v-29.3h11.1c3.1,0,5.9.6,8.2,1.8,2.3,1.2,4,2.9,5.3,5.1,1.2,2.2,1.8,4.7,1.8,7.6s-.6,5.4-1.8,7.6M305.6,193.2c1.5-1.5,2.3-3.5,2.3-6.2s-.8-4.7-2.3-6.2c-1.5-1.5-3.7-2.2-6.4-2.2h-3.4v16.7h3.4c2.8,0,4.9-.7,6.4-2.2Z"/>
  <polygon class="st17" points="105.2 198.1 98.1 198.1 86.3 180.2 86.3 198.1 79.2 198.1 79.2 168.9 86.3 168.9 98.1 187 98.1 168.9 105.2 168.9 105.2 198.1"/>
  <path class="st17" d="M313.2,191.1c-1.2,2.2-3,4-5.3,5.2-2.3,1.2-5,1.9-8.1,1.9h-11.1v-29.3h11.1c3.1,0,5.9.6,8.2,1.8,2.3,1.2,4,2.9,5.3,5.1,1.2,2.2,1.8,4.7,1.8,7.6s-.6,5.4-1.8,7.6M305.6,189.6c1.5-1.5,2.3-3.5,2.3-6.2s-.8-4.7-2.3-6.2c-1.5-1.5-3.7-2.2-6.4-2.2h-3.4v16.7h3.4c2.8,0,4.9-.7,6.4-2.2Z"/>
  <rect class="st17" x="190.9" y="74.6" width="15.7" height="15.7"/>
  <rect class="st17" x="190.9" y="276.7" width="15.7" height="15.7"/>
  <g class="st27">
    <rect class="st7" x="409.7" y="62.7" width="146.8" height="161.9"/>
  </g>
  <g class="st30">
    <rect class="st6" x="422.9" y="75.9" width="120.3" height="135.4"/>
  </g>
  <g class="st29">
    <rect class="st3" x="544.7" y="63.7" width="174.9" height="160.9"/>
  </g>
  <g class="st19">
    <rect class="st13" x="563.7" y="76.9" width="137" height="134.5"/>
  </g>
  <g class="st18">
    <rect class="st12" x="707.7" y="62.7" width="148.3" height="161.9"/>
  </g>
  <g class="st22">
    <rect class="st11" x="720.9" y="75.9" width="121.8" height="135.4"/>
  </g>
  <g class="st20">
    <rect class="st10" x="844.5" y="62.7" width="122.6" height="161.9"/>
  </g>
  <g class="st21">
    <rect class="st14" x="857.7" y="75.9" width="96.2" height="135.4"/>
  </g>
  <g>
    <path class="st15" d="M992.4,62.6v3.2h-5.2v16.4h-3.9v-16.4h-5.2v-3.2h14.3Z"/>
    <path class="st15" d="M1016.5,62.6v19.5h-3.9v-12.7l-5.2,12.7h-3l-5.3-12.7v12.7h-3.9v-19.5h4.5l6.2,14.5,6.2-14.5h4.4Z"/>
  </g>
</svg>
