<svg width="247" height="47" viewBox="0 0 247 47" fill="none" xmlns="http://www.w3.org/2000/svg">
<rect x="0.5" y="0.5" width="246" height="46" rx="23" fill="url(#paint0_linear_1915_841)" stroke="#E2D2C9"/>
<circle cx="25.5" cy="23.5" r="18" fill="url(#paint1_linear_1915_841)" fill-opacity="0.84" stroke="#E2D2C9"/>
<path d="M36.7297 17.4373H33.5636V14.2712C33.5636 14.1217 33.4423 14 33.2924 14H31.7085C31.5591 14 31.4373 14.1213 31.4373 14.2712V17.4373H28.2712C28.1217 17.4373 28 17.5586 28 17.7085V19.2915C28 19.4409 28.1213 19.5627 28.2712 19.5627H31.4373V22.7288C31.4373 22.8783 31.5586 23 31.7085 23H33.2915C33.4409 23 33.5627 22.8787 33.5627 22.7288V19.5636H36.7288C36.8783 19.5636 37 19.4423 37 19.2924L36.9996 17.7085C37.0009 17.5586 36.8796 17.4373 36.7297 17.4373Z" fill="#603345"/>
<path d="M61.0483 34.2784C59.5701 34.2784 58.2576 34.0298 57.1108 33.5327C55.9706 33.0355 55.0758 32.3561 54.4261 31.4943C53.7831 30.6259 53.465 29.6416 53.4716 28.5412C53.465 27.6861 53.6506 26.9006 54.0284 26.1847C54.4063 25.4688 54.9167 24.8722 55.5597 24.3949C56.2093 23.911 56.9318 23.6027 57.7273 23.4702V23.331C56.6799 23.099 55.8314 22.5653 55.1818 21.7301C54.5388 20.8883 54.2206 19.9171 54.2273 18.8168C54.2206 17.7694 54.5123 16.8348 55.1023 16.0128C55.6922 15.1908 56.5009 14.5445 57.5284 14.0739C58.5559 13.5966 59.7292 13.358 61.0483 13.358C62.3542 13.358 63.5175 13.5966 64.5384 14.0739C65.5658 14.5445 66.3745 15.1908 66.9645 16.0128C67.5611 16.8348 67.8594 17.7694 67.8594 18.8168C67.8594 19.9171 67.5312 20.8883 66.875 21.7301C66.2254 22.5653 65.3868 23.099 64.3594 23.331V23.4702C65.1548 23.6027 65.8707 23.911 66.5071 24.3949C67.1501 24.8722 67.6605 25.4688 68.0384 26.1847C68.4228 26.9006 68.6151 27.6861 68.6151 28.5412C68.6151 29.6416 68.2902 30.6259 67.6406 31.4943C66.991 32.3561 66.0961 33.0355 64.956 33.5327C63.8224 34.0298 62.5199 34.2784 61.0483 34.2784ZM61.0483 31.4347C61.8106 31.4347 62.4735 31.3054 63.0369 31.0469C63.6004 30.7817 64.0379 30.4105 64.3494 29.9332C64.661 29.456 64.8201 28.9058 64.8267 28.2827C64.8201 27.633 64.651 27.0597 64.3196 26.5625C63.9948 26.0587 63.5473 25.6643 62.9773 25.3793C62.4138 25.0942 61.7708 24.9517 61.0483 24.9517C60.3191 24.9517 59.6695 25.0942 59.0994 25.3793C58.5294 25.6643 58.0786 26.0587 57.7472 26.5625C57.4223 27.0597 57.2633 27.633 57.2699 28.2827C57.2633 28.9058 57.4157 29.456 57.7273 29.9332C58.0388 30.4039 58.4763 30.7718 59.0398 31.0369C59.6098 31.3021 60.2794 31.4347 61.0483 31.4347ZM61.0483 22.1577C61.6714 22.1577 62.2216 22.0317 62.6989 21.7798C63.1828 21.5279 63.5639 21.1766 63.8423 20.7259C64.1207 20.2751 64.2633 19.7547 64.2699 19.1648C64.2633 18.5814 64.1241 18.071 63.8523 17.6335C63.5805 17.1894 63.2027 16.848 62.7188 16.6094C62.2348 16.3641 61.678 16.2415 61.0483 16.2415C60.4053 16.2415 59.8385 16.3641 59.348 16.6094C58.8641 16.848 58.4863 17.1894 58.2145 17.6335C57.9493 18.071 57.8201 18.5814 57.8267 19.1648C57.8201 19.7547 57.9527 20.2751 58.2244 20.7259C58.5028 21.17 58.884 21.5213 59.3679 21.7798C59.8584 22.0317 60.4186 22.1577 61.0483 22.1577ZM79.4109 34.3878C77.7736 34.3878 76.3683 33.9735 75.195 33.1449C74.0283 32.3097 73.1301 31.1065 72.5004 29.5355C71.8772 27.9579 71.5657 26.0587 71.5657 23.8381C71.5723 21.6174 71.8872 19.7282 72.5103 18.1705C73.14 16.6061 74.0382 15.4129 75.2049 14.5909C76.3782 13.7689 77.7802 13.358 79.4109 13.358C81.0415 13.358 82.4435 13.7689 83.6168 14.5909C84.7901 15.4129 85.6883 16.6061 86.3114 18.1705C86.9412 19.7348 87.256 21.6241 87.256 23.8381C87.256 26.0653 86.9412 27.9678 86.3114 29.5455C85.6883 31.1165 84.7901 32.3163 83.6168 33.1449C82.4502 33.9735 81.0482 34.3878 79.4109 34.3878ZM79.4109 31.2756C80.6836 31.2756 81.6879 30.6491 82.4237 29.3963C83.1661 28.1368 83.5373 26.2841 83.5373 23.8381C83.5373 22.2206 83.3683 20.8617 83.0302 19.7614C82.6921 18.661 82.2148 17.8324 81.5984 17.2756C80.9819 16.7121 80.2527 16.4304 79.4109 16.4304C78.1448 16.4304 77.1438 17.0601 76.408 18.3196C75.6722 19.5724 75.301 21.4119 75.2944 23.8381C75.2878 25.4621 75.4502 26.8277 75.7816 27.9347C76.1197 29.0417 76.5969 29.8769 77.2134 30.4403C77.8299 30.9972 78.5624 31.2756 79.4109 31.2756ZM98.0866 34.3878C96.4493 34.3878 95.044 33.9735 93.8707 33.1449C92.7041 32.3097 91.8059 31.1065 91.1761 29.5355C90.553 27.9579 90.2415 26.0587 90.2415 23.8381C90.2481 21.6174 90.563 19.7282 91.1861 18.1705C91.8158 16.6061 92.714 15.4129 93.8807 14.5909C95.054 13.7689 96.456 13.358 98.0866 13.358C99.7173 13.358 101.119 13.7689 102.293 14.5909C103.466 15.4129 104.364 16.6061 104.987 18.1705C105.617 19.7348 105.932 21.6241 105.932 23.8381C105.932 26.0653 105.617 27.9678 104.987 29.5455C104.364 31.1165 103.466 32.3163 102.293 33.1449C101.126 33.9735 99.724 34.3878 98.0866 34.3878ZM98.0866 31.2756C99.3594 31.2756 100.364 30.6491 101.099 29.3963C101.842 28.1368 102.213 26.2841 102.213 23.8381C102.213 22.2206 102.044 20.8617 101.706 19.7614C101.368 18.661 100.891 17.8324 100.274 17.2756C99.6577 16.7121 98.9285 16.4304 98.0866 16.4304C96.8205 16.4304 95.8196 17.0601 95.0838 18.3196C94.348 19.5724 93.9768 21.4119 93.9702 23.8381C93.9635 25.4621 94.1259 26.8277 94.4574 27.9347C94.7955 29.0417 95.2727 29.8769 95.8892 30.4403C96.5057 30.9972 97.2382 31.2756 98.0866 31.2756ZM115.813 30.2216V27.2884L124.453 13.6364H126.9V17.8125H125.408L119.591 27.0298V27.1889H131.652V30.2216H115.813ZM125.527 34V29.3267L125.567 28.0142V13.6364H129.047V34H125.527ZM158.708 13.6364V34H155.426L145.831 20.1293H145.662V34H141.973V13.6364H145.275L154.86 27.517H155.039V13.6364H158.708ZM165.342 34H161.405L168.574 13.6364H173.128L180.307 34H176.369L170.93 17.8125H170.771L165.342 34ZM165.472 26.0156H176.21V28.9787H165.472V26.0156ZM189.89 34H182.989V13.6364H190.029C192.051 13.6364 193.787 14.044 195.239 14.8594C196.697 15.6681 197.818 16.8314 198.6 18.3494C199.382 19.8674 199.773 21.6837 199.773 23.7983C199.773 25.9195 199.379 27.7424 198.59 29.267C197.808 30.7917 196.677 31.9616 195.199 32.777C193.728 33.5923 191.958 34 189.89 34ZM186.678 30.8082H189.711C191.129 30.8082 192.312 30.5497 193.26 30.0327C194.208 29.509 194.921 28.7301 195.398 27.696C195.875 26.6553 196.114 25.3561 196.114 23.7983C196.114 22.2405 195.875 20.9479 195.398 19.9205C194.921 18.8864 194.215 18.1141 193.28 17.6037C192.352 17.0866 191.199 16.8281 189.82 16.8281H186.678V30.8082ZM202.9 34V31.7031L213.341 16.7287H202.841V13.6364H217.914V15.9332L207.484 30.9077H217.974V34H202.9Z" fill="url(#paint2_linear_1915_841)"/>
<path d="M20.6758 15.5928C20.8806 15.4939 21.1217 15.4733 21.3467 15.5342L21.4424 15.5654C21.6829 15.6639 21.8722 15.8581 21.9658 16.1064V16.1084L23.4658 20.0391L23.4668 20.04C23.5926 20.3692 23.5244 20.7388 23.2822 21.0059L22.2256 22.1689C22.0979 22.3066 22.0584 22.4693 22.0557 22.5938C22.053 22.7174 22.0843 22.8264 22.1201 22.9072C22.6052 24.0069 23.4977 24.9512 24.082 25.5293C24.6934 26.1344 25.5609 26.9294 26.6006 27.3877V27.3867C26.8291 27.4884 27.1123 27.4651 27.3154 27.291L27.3203 27.2861L27.3262 27.2812L28.4941 26.2178C28.7279 26.0057 29.0409 25.928 29.3359 25.9961L29.4609 26.0342L33.3926 27.5342L33.3945 27.5352C33.6452 27.6297 33.8399 27.8216 33.9375 28.0654C34.0309 28.3144 34.0202 28.5931 33.9082 28.8252C33.4385 29.7994 32.3981 31.3804 30.499 31.8604L30.3184 31.9014C29.9989 31.9641 29.6686 31.999 29.3271 31.999C27.3088 31.999 24.8491 30.8323 21.9922 28.3525L21.9912 28.3516L21.7695 28.1523C21.5514 27.9496 21.3436 27.7348 21.1494 27.5098L21.1484 27.5088L20.625 26.8867C18.1108 23.8096 17.1751 21.2342 17.5977 19.1797C18.0185 17.1639 19.6695 16.0779 20.6758 15.5928Z" fill="url(#paint3_linear_1915_841)" stroke="#E2D2C9"/>
<defs>
<linearGradient id="paint0_linear_1915_841" x1="-1.79204e-09" y1="31" x2="276.5" y2="24" gradientUnits="userSpaceOnUse">
<stop offset="0.0192308" stop-color="#572432"/>
<stop offset="0.490396" stop-color="#5F2734"/>
<stop offset="1" stop-color="#5C2533"/>
</linearGradient>
<linearGradient id="paint1_linear_1915_841" x1="14" y1="12" x2="37" y2="38.5" gradientUnits="userSpaceOnUse">
<stop stop-color="#FDD79B"/>
<stop offset="0.519231" stop-color="#FDF8F4"/>
<stop offset="0.923077" stop-color="#E1CD8E"/>
</linearGradient>
<linearGradient id="paint2_linear_1915_841" x1="57" y1="38" x2="231.5" y2="16.5" gradientUnits="userSpaceOnUse">
<stop stop-color="#BD946B"/>
<stop offset="0.584021" stop-color="#F5E9C1"/>
<stop offset="1" stop-color="#A66D42"/>
</linearGradient>
<linearGradient id="paint3_linear_1915_841" x1="25.7504" y1="15" x2="25.7504" y2="32.4986" gradientUnits="userSpaceOnUse">
<stop stop-color="#400D2B"/>
<stop offset="1" stop-color="#724954"/>
</linearGradient>
</defs>
</svg>
