<svg xmlns="http://www.w3.org/2000/svg" viewBox="55 40 460 100" fill="#010101">
<path d="m164.92,62.8h0c0,1.17-1.24,1.92-2.28,1.39-4.64-2.4-9.92-3.7-15.52-3.57-17.32.41-31.38,14.78-31.4,32.11-.03,17.8,14.39,32.24,32.18,32.24,5.32,0,10.34-1.29,14.75-3.58,1.04-.54,2.28.22,2.28,1.39h0c0,.87.7,1.56,1.56,1.56h13.53c.87,0,1.56-.7,1.56-1.56v-59.97c0-.87-.7-1.56-1.56-1.56h-13.53c-.87,0-1.57.71-1.57,1.56Zm-.35,31.26c-.6,7.61-6.77,13.78-14.38,14.38-9.68.76-17.69-7.26-16.93-16.93.6-7.61,6.77-13.78,14.38-14.38,9.68-.76,17.69,7.26,16.93,16.93Z"/>
<path d="m345.86,62.8h0c0,1.17-1.24,1.92-2.28,1.39-4.64-2.4-9.92-3.7-15.52-3.57-17.32.41-31.38,14.78-31.4,32.11-.03,17.8,14.39,32.24,32.18,32.24,5.32,0,10.34-1.29,14.75-3.58,1.04-.54,2.28.22,2.28,1.39h0c0,.87.7,1.56,1.56,1.56h13.53c.87,0,1.56-.7,1.56-1.56v-59.97c0-.87-.7-1.56-1.56-1.56h-13.53c-.87,0-1.57.71-1.57,1.56Zm-.35,31.26c-.6,7.61-6.77,13.78-14.38,14.38-9.68.76-17.69-7.26-16.93-16.93.6-7.61,6.77-13.78,14.38-14.38,9.68-.76,17.69,7.26,16.93,16.93Z"/>
<path d="m469.5,62.8h0c0,1.17-1.24,1.92-2.28,1.39-4.64-2.4-9.92-3.7-15.52-3.57-17.32.4-31.38,14.78-31.41,32.11-.03,17.8,14.39,32.24,32.18,32.24,5.32,0,10.34-1.29,14.75-3.58,1.04-.54,2.28.22,2.28,1.39h0c0,.87.7,1.56,1.56,1.56h13.53c.87,0,1.56-.7,1.56-1.56v-59.97c0-.87-.7-1.56-1.56-1.56h-13.53c-.86,0-1.56.71-1.56,1.56Zm-.35,31.26c-.6,7.61-6.77,13.78-14.38,14.38-9.68.76-17.69-7.26-16.93-16.93.6-7.61,6.77-13.78,14.38-14.38,9.68-.76,17.69,7.26,16.93,16.93Z"/>
<path d="m248.2,61.24h-54.11c-.92,0-1.67.75-1.67,1.67v58.55c0,.92.75,1.67,1.67,1.67h14.51c.92,0,1.67-.75,1.67-1.67v-41.2c0-.92.75-1.67,1.67-1.67h16.72c.92,0,1.67.75,1.67,1.67v41.21c0,.92.75,1.67,1.67,1.67h14.51c.92,0,1.67-.75,1.67-1.67v-41.21c0-.92.75-1.67,1.67-1.67h16.72c.92,0,1.67.75,1.67,1.67v41.21c0,.92.75,1.67,1.67,1.67h14.51c.92,0,1.67-.75,1.67-1.67v-58.56c0-.92-.75-1.67-1.67-1.67h-16.18s-20.05,0-20.05,0Z"/>
<path d="m87.33,78.58h15.58c.39,0,.72-.31.72-.72v-15.91c0-.39-.31-.72-.72-.72h-15.58c-.39,0-.72-.31-.72-.72v-19.38c0-.29-.17-.55-.45-.66h0c-.25-.1-.53-.05-.73.12l-29.36,25.07c-.37.31-.59.78-.59,1.27v9.97c0,.92.75,1.67,1.67,1.67h11.59v43.84c0,.39.31.72.72.72h35.14c.39,0,.72-.31.72-.72v-15.91c0-.39-.31-.72-.72-.72h-17.28c-.39,0-.72-.31-.72-.72v-25.77c.01-.39.33-.72.72-.72Z"/>
<path d="m391.36,64.97v-2.4c0-.92-.75-1.67-1.67-1.67h-14.51c-.92,0-1.67.75-1.67,1.67v58.89c0,.92.75,1.67,1.67,1.67h14.51c.92,0,1.67-.75,1.67-1.67v-35.35c0-.71.45-1.34,1.11-1.57l18.54-6.74c.66-.24,1.11-.87,1.11-1.57v-16.34l-.68-.51-17.77,7.16c-1.1.45-2.3-.37-2.3-1.55Z"/>
</svg>
