<svg width="113" height="113" viewBox="0 0 113 113" fill="none" xmlns="http://www.w3.org/2000/svg">
<path d="M28.0839 84.2519C12.5736 68.7416 12.5736 43.5944 28.0839 28.084V28.084C43.5942 12.5737 68.7414 12.5737 84.2518 28.084V28.084C99.7621 43.5944 99.7621 68.7416 84.2518 84.2519L56.1678 112.336L28.0839 84.2519Z" fill="url(#paint0_linear_1937_586)"/>
<circle cx="56.5" cy="55.5" r="33.5" fill="url(#paint1_linear_1937_586)"/>
<path d="M72.2325 48.7776H65.2668V51.122H72.2325C74.8943 51.122 77.0746 53.2571 77.0746 55.8945V56.969C77.0746 59.5925 74.9084 61.7415 72.2325 61.7415H68.7638H67.4754L64.1483 58.4901L53.3032 47.8706L48.631 43.2935V46.4193L51.0095 48.7497L51.0662 48.8055L53.4589 51.1499L61.7555 59.2855L64.1341 61.6159L64.2757 61.7555L66.6684 64.0998H71.1282H72.2042H72.2325C76.1968 64.0859 79.4107 60.9042 79.4107 56.983V55.9085C79.4107 51.9872 76.1826 48.7916 72.1901 48.7916" fill="#A56B3F"/>
<path d="M61.7834 62.872L60.6225 61.7277L51.0233 52.3223L49.7915 51.1222L48.6447 49.9919L47.3988 48.7778H40.2206C36.228 48.7778 33 51.9595 33 55.8947V56.9692C33 60.8905 36.228 64.0861 40.2206 64.0861H47.5404V61.7417H40.2206C37.5589 61.7417 35.3786 59.6066 35.3786 56.9692V55.8947C35.3786 53.2712 37.5448 51.1222 40.2206 51.1222H46.6059L48.6305 53.1177L51.0091 55.4482L57.4227 61.7277L59.8154 64.0721L61.7409 65.956L64.1337 68.3143V65.1885L62.9869 64.0582L61.7551 62.8581L61.7834 62.872Z" fill="#A56B3F"/>
<path d="M61.7839 71.1193C61.7839 73.7428 59.6177 75.8918 56.9418 75.8918H55.8516C53.1899 75.8918 51.0095 73.7567 51.0095 71.1193V56.9833L48.631 54.6528V71.1193C48.631 75.0545 51.859 78.2362 55.8516 78.2362H56.9418C60.9344 78.2362 64.1624 75.0545 64.1624 71.1193V69.8634L61.7839 67.533V71.1333V71.1193Z" fill="#A56B3F"/>
<mask id="mask0_1937_586" style="mask-type:luminance" maskUnits="userSpaceOnUse" x="48" y="36" width="30" height="25">
<path d="M77.0603 56.1738V55.0993C77.0603 52.4758 74.8941 50.3268 72.2183 50.3268H65.2383V47.9824H64.134V56.3133L61.7554 53.9829V41.1167C61.7554 38.4933 59.5892 36.3442 56.9133 36.3442H55.8232C53.1614 36.3442 50.9811 38.4793 50.9811 41.1167V43.4472L48.6025 41.1167V42.4703L53.2747 47.0475L64.1198 57.6669L67.447 60.9184H68.7354H72.2041C74.8658 60.9184 77.0462 58.7833 77.0462 56.1459" fill="white"/>
</mask>
<g mask="url(#mask0_1937_586)">
<path d="M77.0745 36.3726H48.645V60.9467H77.0745V36.3726Z" fill="url(#paint2_linear_1937_586)"/>
</g>
<mask id="mask1_1937_586" style="mask-type:luminance" maskUnits="userSpaceOnUse" x="35" y="50" width="30" height="25">
<path d="M55.8512 74.915H56.9413C59.6031 74.915 61.7834 72.7799 61.7834 70.1425V66.5422L64.162 68.8726V67.519L61.7693 65.1746L51.0374 54.6528L48.6588 52.3224L46.6342 50.3408H45.3459H44.2415H40.2489C37.5872 50.3408 35.4069 52.4759 35.4069 55.1133V56.1878C35.4069 58.8113 37.5731 60.9603 40.2489 60.9603H47.5687V63.3047H48.673V53.7039L51.0516 56.0343V70.1704C51.0516 72.7938 53.2178 74.9429 55.8936 74.9429" fill="white"/>
</mask>
<g mask="url(#mask1_1937_586)">
<path d="M64.1621 50.3408H35.3928V74.915H64.1621V50.3408Z" fill="url(#paint3_linear_1937_586)"/>
</g>
<path d="M51.0237 44.8149L54.2659 47.9966L56.6586 50.341L61.7838 55.3507L51.0237 44.8149Z" fill="#FCF5DA"/>
<mask id="mask2_1937_586" style="mask-type:luminance" maskUnits="userSpaceOnUse" x="48" y="34" width="17" height="23">
<path d="M55.8516 34.014C51.859 34.014 48.631 37.1956 48.631 41.1169L51.0095 43.4473V41.1169C51.0095 38.4934 53.1757 36.3444 55.8516 36.3444H56.9418C59.6035 36.3444 61.7839 38.4794 61.7839 41.1169V53.9831L64.1624 56.3135V41.1169C64.1624 37.1817 60.9344 34 56.9418 34H55.8516V34.014Z" fill="white"/>
</mask>
<g mask="url(#mask2_1937_586)">
<path d="M64.1623 34.0142H48.645V56.3276H64.1623V34.0142Z" fill="url(#paint4_linear_1937_586)"/>
</g>
<mask id="mask3_1937_586" style="mask-type:luminance" maskUnits="userSpaceOnUse" x="48" y="53" width="17" height="25">
<path d="M48.645 53.6899V70.1564C48.645 74.0916 51.8731 77.2733 55.8657 77.2733H56.9558C60.9484 77.2733 64.1765 74.0916 64.1765 70.1564V68.9005L61.7979 66.5701V70.1704C61.7979 72.7939 59.6317 74.9429 56.9558 74.9429H55.8657C53.2039 74.9429 51.0236 72.8078 51.0236 70.1704V56.0343L48.645 53.7039V53.6899Z" fill="white"/>
</mask>
<g mask="url(#mask3_1937_586)">
<path d="M64.1623 53.6899H48.645V77.2733H64.1623V53.6899Z" fill="url(#paint5_linear_1937_586)"/>
</g>
<mask id="mask4_1937_586" style="mask-type:luminance" maskUnits="userSpaceOnUse" x="48" y="42" width="32" height="22">
<path d="M79.4532 56.1741V55.0996C79.4532 51.1783 76.2251 47.9827 72.2325 47.9827H65.2526V50.3271H72.2325C74.8943 50.3271 77.0746 52.4622 77.0746 55.0996V56.1741C77.0746 58.7976 74.9084 60.9466 72.2325 60.9466H68.7638H67.4754L64.1483 57.6951L53.3032 47.0757L48.631 42.4985V45.6244L51.0095 47.9548L51.0662 48.0106L53.4589 50.355L61.7555 58.4906L64.1341 60.821L64.2757 60.9605L66.6684 63.3049H71.1282H72.2042H72.2325C76.1968 63.291 79.4107 60.1093 79.4107 56.188" fill="white"/>
</mask>
<g mask="url(#mask4_1937_586)">
<path d="M79.453 42.4844H48.645V63.2908H79.453V42.4844Z" fill="url(#paint6_linear_1937_586)"/>
</g>
<mask id="mask5_1937_586" style="mask-type:luminance" maskUnits="userSpaceOnUse" x="33" y="47" width="32" height="21">
<path d="M64.162 67.5329V64.407L63.0152 63.2767L61.7834 62.0766L60.6225 60.9323L51.0233 51.5269L49.7915 50.3268L48.6447 49.1965L47.3988 47.9824H40.2206C36.228 47.9824 33 51.1641 33 55.0993V56.1738C33 60.0951 36.228 63.2907 40.2206 63.2907H47.5404V60.9463H40.2206C37.5589 60.9463 35.3786 58.8112 35.3786 56.1738V55.0993C35.3786 52.4758 37.5448 50.3268 40.2206 50.3268H46.6059L48.6305 52.3223L51.0091 54.6527L57.4227 60.9323L59.8154 63.2767L61.7409 65.1606L64.1337 67.5189L64.162 67.5329Z" fill="white"/>
</mask>
<g mask="url(#mask5_1937_586)">
<path d="M64.162 47.9966H33.0142V67.5331H64.162V47.9966Z" fill="url(#paint7_linear_1937_586)"/>
</g>
<mask id="mask6_1937_586" style="mask-type:luminance" maskUnits="userSpaceOnUse" x="48" y="45" width="17" height="20">
<path d="M48.645 45.5962V49.2104L64.1623 64.421V60.8068L48.645 45.5962Z" fill="white"/>
</mask>
<g mask="url(#mask6_1937_586)">
<path d="M64.1623 45.5962H48.645V64.4071H64.1623V45.5962Z" fill="url(#paint8_linear_1937_586)"/>
</g>
<path d="M57.5646 40.9634H55.3418V43.1543H57.5646V40.9634Z" fill="#A56B3F"/>
<path d="M57.5646 69.1519H55.3418V71.3427H57.5646V69.1519Z" fill="#A56B3F"/>
<path d="M43.2087 58.1971H42.2035L40.5328 55.6853V58.1971H39.5276V54.1084H40.5328L42.2035 56.6342V54.1084H43.2087V58.1971Z" fill="#A56B3F"/>
<path d="M72.6566 57.2063C72.4867 57.5133 72.2319 57.7645 71.9062 57.932C71.5806 58.0994 71.1983 58.1971 70.7594 58.1971H69.1879V54.1084H70.7594C71.1983 54.1084 71.5947 54.1921 71.9204 54.3596C72.246 54.527 72.4867 54.7643 72.6708 55.0713C72.8407 55.3783 72.9256 55.7271 72.9256 56.1318C72.9256 56.5365 72.8407 56.8854 72.6708 57.1924M71.5806 56.997C71.793 56.7877 71.9062 56.5086 71.9062 56.1318C71.9062 55.755 71.793 55.476 71.5806 55.2666C71.3682 55.0573 71.0567 54.9596 70.6745 54.9596H70.1931V57.2901H70.6745C71.0709 57.2901 71.3682 57.1924 71.5806 56.9831V56.997Z" fill="#A56B3F"/>
<path d="M43.2087 57.6807H42.2035L40.5328 55.1828V57.6807H39.5276V53.606H40.5328L42.2035 56.1317V53.606H43.2087V57.6807Z" fill="#EBD8AF"/>
<path d="M72.6566 56.7039C72.4867 57.0109 72.2319 57.2621 71.9062 57.4295C71.5806 57.597 71.1983 57.6947 70.7594 57.6947H69.1879V53.606H70.7594C71.1983 53.606 71.5947 53.6897 71.9204 53.8571C72.246 54.0246 72.4867 54.2618 72.6708 54.5688C72.8407 54.8758 72.9256 55.2247 72.9256 55.6294C72.9256 56.0341 72.8407 56.3829 72.6708 56.6899M71.5806 56.4946C71.793 56.2853 71.9062 56.0062 71.9062 55.6294C71.9062 55.2526 71.793 54.9735 71.5806 54.7642C71.3682 54.5549 71.0567 54.4572 70.6745 54.4572H70.1931V56.7876H70.6745C71.0709 56.7876 71.3682 56.6899 71.5806 56.4806V56.4946Z" fill="#EBD8AF"/>
<path d="M57.5646 40.4468H55.3418V42.6377H57.5646V40.4468Z" fill="#EBD8AF"/>
<path d="M57.5646 68.6494H55.3418V70.8403H57.5646V68.6494Z" fill="#EBD8AF"/>
<defs>
<linearGradient id="paint0_linear_1937_586" x1="26.9915" y1="26.9916" x2="92.1627" y2="92.1629" gradientUnits="userSpaceOnUse">
<stop stop-color="#DFB680"/>
<stop offset="0.5" stop-color="#FCF9D6"/>
<stop offset="0.7" stop-color="#D6BC95"/>
<stop offset="0.8" stop-color="#BB9066"/>
<stop offset="0.9" stop-color="#AB7549"/>
<stop offset="1" stop-color="#A56B3F"/>
</linearGradient>
<linearGradient id="paint1_linear_1937_586" x1="23" y1="55.519" x2="90" y2="55.519" gradientUnits="userSpaceOnUse">
<stop stop-color="#331828"/>
<stop offset="0.5" stop-color="#6C2A37"/>
<stop offset="1" stop-color="#331828"/>
</linearGradient>
<linearGradient id="paint2_linear_1937_586" x1="48.645" y1="48.6526" x2="77.0603" y2="48.6526" gradientUnits="userSpaceOnUse">
<stop stop-color="#331828"/>
<stop offset="0.5" stop-color="#6C2A37"/>
<stop offset="1" stop-color="#331828"/>
</linearGradient>
<linearGradient id="paint3_linear_1937_586" x1="35.3928" y1="62.6349" x2="64.1621" y2="62.6349" gradientUnits="userSpaceOnUse">
<stop stop-color="#331828"/>
<stop offset="0.5" stop-color="#6C2A37"/>
<stop offset="1" stop-color="#331828"/>
</linearGradient>
<linearGradient id="paint4_linear_1937_586" x1="56.4037" y1="27.8741" x2="56.4037" y2="51.9598" gradientUnits="userSpaceOnUse">
<stop stop-color="#A56B3F"/>
<stop offset="0.5" stop-color="#FCF9D6"/>
<stop offset="1" stop-color="#DFB680"/>
</linearGradient>
<linearGradient id="paint5_linear_1937_586" x1="56.4037" y1="56.8576" x2="56.4037" y2="79.7991" gradientUnits="userSpaceOnUse">
<stop stop-color="#DFB680"/>
<stop offset="0.5" stop-color="#FCF9D6"/>
<stop offset="0.6" stop-color="#EDE0BB"/>
<stop offset="0.7" stop-color="#D3B68F"/>
<stop offset="0.8" stop-color="#BF956C"/>
<stop offset="0.9" stop-color="#A86F44"/>
<stop offset="1" stop-color="#A56B3F"/>
</linearGradient>
<linearGradient id="paint6_linear_1937_586" x1="64.049" y1="42.0797" x2="64.049" y2="66.2212" gradientUnits="userSpaceOnUse">
<stop stop-color="#DFB680"/>
<stop offset="0.5" stop-color="#FCF9D6"/>
<stop offset="0.7" stop-color="#D6BC95"/>
<stop offset="0.8" stop-color="#BB9066"/>
<stop offset="0.9" stop-color="#AB7549"/>
<stop offset="1" stop-color="#A56B3F"/>
</linearGradient>
<linearGradient id="paint7_linear_1937_586" x1="48.5881" y1="68.9006" x2="48.5881" y2="44.7172" gradientUnits="userSpaceOnUse">
<stop stop-color="#A56B3F"/>
<stop offset="0.5" stop-color="#FCF9D6"/>
<stop offset="1" stop-color="#DFB680"/>
</linearGradient>
<linearGradient id="paint8_linear_1937_586" x1="28.314" y1="55.0156" x2="64.1623" y2="55.0156" gradientUnits="userSpaceOnUse">
<stop stop-color="#331828"/>
<stop offset="0.5" stop-color="#6C2A37"/>
<stop offset="1" stop-color="#331828"/>
</linearGradient>
</defs>
</svg>
