<svg width="165" height="53" viewBox="0 0 165 53" fill="none" xmlns="http://www.w3.org/2000/svg">
<path d="M91.7406 36.8691V40.784H90.7685V39.1487H89.2602V40.784H88.3049V36.8691H89.2602V38.3888H90.7685V36.8691H91.7406Z" fill="white"/>
<path d="M93.9361 37.6125V38.4384H95.2769V39.1487H93.9361V40.0242H95.4445V40.784H92.9641V36.8691H95.4445V37.6125H93.9361Z" fill="white"/>
<path d="M99.0141 40.0733H97.5226L97.2712 40.7836H96.2656L97.7237 36.8853H98.8298L100.288 40.7836H99.2655L99.0141 40.0733ZM98.7628 39.3465L98.26 37.9094L97.7572 39.3465H98.746H98.7628Z" fill="white"/>
<path d="M102.181 40.0572H103.471V40.784H101.225V36.8691H102.181V40.0572Z" fill="white"/>
<path d="M107.326 36.8691V37.6125H106.254V40.784H105.282V37.6125H104.209V36.8691H107.326Z" fill="white"/>
<path d="M111.733 36.8691V40.784H110.761V39.1487H109.253V40.784H108.298V36.8691H109.253V38.3888H110.761V36.8691H111.733Z" fill="white"/>
<path d="M116.042 37.2156C116.377 37.4799 116.595 37.8268 116.679 38.2728H115.656C115.573 38.0911 115.472 37.9424 115.305 37.8433C115.154 37.7442 114.969 37.6946 114.751 37.6946C114.534 37.6946 114.249 37.7938 114.064 37.992C113.897 38.1902 113.813 38.471 113.813 38.8014C113.813 39.1317 113.897 39.4126 114.064 39.6108C114.232 39.809 114.467 39.9081 114.751 39.9081C115.036 39.9081 115.154 39.8586 115.305 39.7594C115.455 39.6603 115.573 39.5117 115.656 39.33H116.679C116.578 39.776 116.36 40.1229 116.042 40.3871C115.707 40.6514 115.288 40.7836 114.785 40.7836C114.282 40.7836 114.064 40.701 113.763 40.5358C113.478 40.3706 113.243 40.1394 113.092 39.8255C112.925 39.5282 112.858 39.1813 112.858 38.7849C112.858 38.3884 112.941 38.058 113.092 37.7442C113.243 37.4469 113.478 37.1991 113.763 37.0339C114.048 36.8687 114.4 36.7861 114.785 36.7861C115.17 36.7861 115.707 36.9183 116.042 37.1826" fill="white"/>
<path d="M120.248 40.0733H118.757L118.505 40.7836H117.5L118.958 36.8853H120.064L121.522 40.7836H120.5L120.248 40.0733ZM119.997 39.3465L119.494 37.9094L118.991 39.3465H119.98H119.997Z" fill="white"/>
<path d="M124.487 40.784L123.633 39.2973H123.415V40.784H122.459V36.8691H124.102C124.42 36.8691 124.688 36.9187 124.906 37.0343C125.124 37.1334 125.292 37.2821 125.392 37.4803C125.493 37.662 125.56 37.8768 125.56 38.1245C125.56 38.3723 125.476 38.6531 125.325 38.8514C125.158 39.0496 124.94 39.1817 124.638 39.2643L125.577 40.8005H124.521L124.487 40.784ZM123.415 38.6531H124.018C124.202 38.6531 124.353 38.6036 124.437 38.521C124.521 38.4384 124.571 38.3228 124.571 38.1576C124.571 37.9924 124.521 37.8768 124.437 37.7942C124.353 37.7116 124.202 37.662 124.018 37.662H123.415V38.6531Z" fill="white"/>
<path d="M127.556 37.6125V38.4384H128.897V39.1487H127.556V40.0242H129.064V40.784H126.601V36.8691H129.064V37.6125H127.556Z" fill="white"/>
<path d="M84.6855 38.4712H61.9767V39.1319H84.6855V38.4712Z" fill="white"/>
<path d="M155.393 38.4712H132.684V39.1319H155.393V38.4712Z" fill="white"/>
<path d="M71.3446 43.625L69.7525 46.6479V48.151H68.6296V46.6479L67.0375 43.625H68.3112L69.1994 45.4751L70.0709 43.625H71.3446Z" fill="white"/>
<path d="M75.7861 43.8564C76.138 44.0546 76.4229 44.3354 76.6241 44.6823C76.8252 45.0292 76.9257 45.4422 76.9257 45.8717C76.9257 46.3011 76.8252 46.7141 76.6241 47.0775C76.4229 47.4244 76.138 47.7052 75.7861 47.9034C75.4342 48.1016 75.0487 48.2008 74.6129 48.2008C74.1772 48.2008 73.7917 48.1016 73.4398 47.9034C73.0879 47.7052 72.8029 47.4244 72.6018 47.0775C72.4007 46.7306 72.3002 46.3177 72.3002 45.8717C72.3002 45.4257 72.4007 45.0292 72.6018 44.6823C72.8029 44.3354 73.0879 44.0546 73.4398 43.8564C73.7917 43.6582 74.1772 43.5591 74.6129 43.5591C75.0487 43.5591 75.4342 43.6582 75.7861 43.8564ZM73.7415 44.9136C73.5236 45.1448 73.423 45.4587 73.423 45.8717C73.423 46.2846 73.5236 46.582 73.7415 46.8132C73.9593 47.0445 74.2442 47.1601 74.6129 47.1601C74.9817 47.1601 75.2666 47.0445 75.4844 46.8132C75.7023 46.582 75.8029 46.2681 75.8029 45.8717C75.8029 45.4752 75.7023 45.1614 75.4844 44.9301C75.2666 44.6989 74.9817 44.5832 74.6129 44.5832C74.2442 44.5832 73.9593 44.6989 73.7415 44.9301V44.9136Z" fill="white"/>
<path d="M79.2878 43.6249V46.2348C79.2878 46.5322 79.3549 46.7634 79.4889 46.9286C79.623 47.0938 79.8241 47.1599 80.0923 47.1599C80.3604 47.1599 80.5448 47.0773 80.6956 46.9286C80.8297 46.7634 80.8967 46.5487 80.8967 46.2348V43.6249H82.0028V46.2348C82.0028 46.6643 81.919 47.0277 81.7515 47.3085C81.5839 47.6059 81.3492 47.8206 81.0643 47.9693C80.7794 48.1179 80.4442 48.184 80.0755 48.184C79.7068 48.184 79.3884 48.1179 79.1035 47.9693C78.8186 47.8206 78.6007 47.6059 78.4331 47.3085C78.2655 47.0112 78.1985 46.6478 78.1985 46.2183V43.6084H79.3046L79.2878 43.6249Z" fill="white"/>
<path d="M85.7569 48.151L84.7682 46.4331H84.5168V48.151H83.4106V43.6084H85.3044C85.6731 43.6084 85.9748 43.6745 86.2262 43.7901C86.4776 43.9222 86.6619 44.0874 86.796 44.3022C86.9301 44.5169 86.9804 44.7647 86.9804 45.0455C86.9804 45.3263 86.8966 45.6567 86.7122 45.8879C86.5279 46.1192 86.2597 46.2844 85.9078 46.367L86.9971 48.151H85.7737H85.7569ZM84.5 45.6897H85.1871C85.405 45.6897 85.5726 45.6402 85.6731 45.5411C85.7737 45.4419 85.824 45.3098 85.824 45.1116C85.824 44.9134 85.7737 44.7977 85.6731 44.6821C85.5726 44.583 85.405 44.5334 85.1871 44.5334H84.5V45.6732V45.6897Z" fill="white"/>
<path d="M93.1316 43.625V44.5005H91.2546V45.4916H92.7126V46.3175H91.2546V48.151H90.1317V43.625H93.1316Z" fill="white"/>
<path d="M97.2046 47.3252H95.4784L95.1935 48.1511H94.0204L95.7131 43.6416H96.9868L98.6795 48.1511H97.4896L97.2046 47.3252ZM96.9197 46.4993L96.3499 44.8309L95.7634 46.4993H96.9197Z" fill="white"/>
<path d="M104.931 43.6582V48.1512H103.825V45.3431L102.836 48.1512H101.864L100.875 45.3431V48.1512H99.7692V43.6582H101.127L102.367 46.7967L103.59 43.6582H104.931Z" fill="white"/>
<path d="M107.462 43.625H106.356V48.1676H107.462V43.625Z" fill="white"/>
<path d="M109.991 47.3251H111.483V48.151H108.885V43.625H109.991V47.3251Z" fill="white"/>
<path d="M116.628 43.625L115.036 46.6479V48.151H113.913V46.6479L112.321 43.625H113.595L114.483 45.4751L115.354 43.625H116.628Z" fill="white"/>
<path d="M123.499 47.0607C123.297 47.4076 123.029 47.6719 122.661 47.8702C122.292 48.0684 121.873 48.151 121.387 48.151H119.644V43.6084H121.387C121.873 43.6084 122.309 43.7075 122.661 43.8892C123.013 44.0709 123.297 44.3352 123.482 44.6821C123.683 45.029 123.767 45.4254 123.767 45.8549C123.767 46.2844 123.666 46.6973 123.482 47.0442M122.309 46.8295C122.543 46.5982 122.677 46.2844 122.677 45.8714C122.677 45.4585 122.56 45.1446 122.309 44.9134C122.074 44.6821 121.722 44.5665 121.303 44.5665H120.784V47.1599H121.303C121.739 47.1599 122.074 47.0442 122.309 46.813V46.8295Z" fill="white"/>
<path d="M128.443 43.8564C128.795 44.0546 129.08 44.3354 129.281 44.6823C129.482 45.0292 129.583 45.4422 129.583 45.8717C129.583 46.3011 129.482 46.7141 129.281 47.0775C129.08 47.4244 128.795 47.7052 128.443 47.9034C128.091 48.1016 127.706 48.2008 127.27 48.2008C126.834 48.2008 126.449 48.1016 126.097 47.9034C125.745 47.7052 125.46 47.4244 125.259 47.0775C125.058 46.7306 124.957 46.3177 124.957 45.8717C124.957 45.4257 125.058 45.0292 125.259 44.6823C125.46 44.3354 125.745 44.0546 126.097 43.8564C126.449 43.6582 126.834 43.5591 127.27 43.5591C127.706 43.5591 128.091 43.6582 128.443 43.8564ZM126.399 44.9136C126.181 45.1448 126.08 45.4587 126.08 45.8717C126.08 46.2846 126.181 46.582 126.399 46.8132C126.616 47.0445 126.901 47.1601 127.27 47.1601C127.639 47.1601 127.924 47.0445 128.142 46.8132C128.359 46.582 128.46 46.2681 128.46 45.8717C128.46 45.4752 128.359 45.1614 128.142 44.9301C127.924 44.6989 127.639 44.5832 127.27 44.5832C126.901 44.5832 126.616 44.6989 126.399 44.9301V44.9136Z" fill="white"/>
<path d="M134.426 44.038C134.812 44.3354 135.063 44.7483 135.164 45.2769H133.991C133.907 45.0622 133.773 44.897 133.588 44.7814C133.404 44.6657 133.186 44.5997 132.952 44.5997C132.717 44.5997 132.365 44.7153 132.164 44.9465C131.963 45.1778 131.862 45.4917 131.862 45.8881C131.862 46.2845 131.963 46.5984 132.164 46.8296C132.365 47.0609 132.633 47.1765 132.952 47.1765C133.27 47.1765 133.421 47.1105 133.588 46.9948C133.773 46.8792 133.907 46.714 133.991 46.4993H135.164C135.047 47.0113 134.795 47.4243 134.426 47.7216C134.041 48.0355 133.555 48.1842 132.968 48.1842C132.382 48.1842 132.13 48.085 131.795 47.8868C131.46 47.6886 131.192 47.4243 131.008 47.0774C130.823 46.7305 130.723 46.3341 130.723 45.8716C130.723 45.4091 130.823 45.0291 131.008 44.6657C131.192 44.3188 131.46 44.038 131.795 43.8398C132.13 43.6416 132.533 43.5425 132.968 43.5425C133.404 43.5425 134.041 43.6911 134.426 44.005" fill="white"/>
<path d="M139.738 43.625V44.5005H138.498V48.151H137.375V44.5005H136.135V43.625H139.738Z" fill="white"/>
<path d="M144.231 43.8564C144.583 44.0546 144.868 44.3354 145.069 44.6823C145.27 45.0292 145.371 45.4422 145.371 45.8717C145.371 46.3011 145.27 46.7141 145.069 47.0775C144.868 47.4244 144.583 47.7052 144.231 47.9034C143.879 48.1016 143.494 48.2008 143.058 48.2008C142.623 48.2008 142.237 48.1016 141.885 47.9034C141.533 47.7052 141.248 47.4244 141.047 47.0775C140.846 46.7306 140.745 46.3177 140.745 45.8717C140.745 45.4257 140.846 45.0292 141.047 44.6823C141.248 44.3354 141.533 44.0546 141.885 43.8564C142.237 43.6582 142.623 43.5591 143.058 43.5591C143.494 43.5591 143.879 43.6582 144.231 43.8564ZM142.187 44.9136C141.969 45.1448 141.868 45.4587 141.868 45.8717C141.868 46.2846 141.969 46.582 142.187 46.8132C142.405 47.0445 142.69 47.1601 143.058 47.1601C143.427 47.1601 143.712 47.0445 143.93 46.8132C144.148 46.582 144.248 46.2681 144.248 45.8717C144.248 45.4752 144.148 45.1614 143.93 44.9301C143.712 44.6989 143.427 44.5832 143.058 44.5832C142.69 44.5832 142.405 44.6989 142.187 44.9301V44.9136Z" fill="white"/>
<path d="M149.007 48.151L148.018 46.4331H147.767V48.151H146.661V43.6084H148.555C148.923 43.6084 149.225 43.6745 149.476 43.7901C149.728 43.9222 149.912 44.0874 150.046 44.3022C150.18 44.5169 150.23 44.7647 150.23 45.0455C150.23 45.3263 150.13 45.6567 149.946 45.8879C149.761 46.1192 149.493 46.2844 149.141 46.367L150.23 48.151H149.007ZM147.767 45.6897H148.454C148.672 45.6897 148.839 45.6402 148.94 45.5411C149.041 45.4419 149.091 45.3098 149.091 45.1116C149.091 44.9134 149.041 44.7977 148.923 44.6821C148.823 44.583 148.655 44.5334 148.437 44.5334H147.75V45.6732L147.767 45.6897Z" fill="white"/>
<path d="M46.4404 17.4927H38.1948V20.2678H46.4404C49.5911 20.2678 52.172 22.7951 52.172 25.9171V27.189C52.172 30.2945 49.6079 32.8383 46.4404 32.8383H42.3344H40.8093L36.8708 28.9895L24.0332 16.419L18.5027 11.001V14.7011L21.3182 17.4597L21.3853 17.5258L24.2176 20.3009L34.0385 29.9311L36.8541 32.6897L37.0217 32.8549L39.854 35.63H45.1331H46.4069H46.4404C51.133 35.6134 54.9373 31.8472 54.9373 27.2056V25.9336C54.9373 21.292 51.1162 17.5092 46.3901 17.5092" fill="#A56B3F"/>
<path d="M34.0716 34.1763L32.6973 32.8218L21.3345 21.6884L19.8765 20.2678L18.519 18.9298L17.0442 17.4927H8.54722C3.82111 17.4927 0 21.2589 0 25.9171V27.189C0 31.8307 3.82111 35.6134 8.54722 35.6134H17.2118V32.8383H8.54722C5.39648 32.8383 2.81556 30.311 2.81556 27.189V25.9171C2.81556 22.8116 5.37972 20.2678 8.54722 20.2678H16.1056L18.5022 22.6299L21.3178 25.3885L28.9097 32.8218L31.742 35.5969L34.0213 37.8269L36.8536 40.6185V36.9183L35.4961 35.5804L34.0381 34.1598L34.0716 34.1763Z" fill="#A56B3F"/>
<path d="M34.072 43.939C34.072 47.0445 31.5079 49.5883 28.3404 49.5883H27.0499C23.8992 49.5883 21.3182 47.061 21.3182 43.939V27.2058L18.5027 24.4473V43.939C18.5027 48.5972 22.3238 52.3634 27.0499 52.3634H28.3404C33.0665 52.3634 36.8876 48.5972 36.8876 43.939V42.4523L34.072 39.6938V43.9555V43.939Z" fill="#A56B3F"/>
<mask id="mask0_2128_2577" style="mask-type:luminance" maskUnits="userSpaceOnUse" x="18" y="2" width="35" height="30">
<path d="M52.1552 26.2476V24.9757C52.1552 21.8702 49.5911 19.3264 46.4236 19.3264H38.1612V16.5513H36.854V26.4128L34.0385 23.6542V8.4242C34.0385 5.31874 31.4743 2.7749 28.3068 2.7749H27.0163C23.8656 2.7749 21.2847 5.30222 21.2847 8.4242V11.1828L18.4691 8.4242V10.0265L23.9997 15.4445L36.8373 28.0151L40.7757 31.8638H42.3008H46.4068C49.5575 31.8638 52.1385 29.3365 52.1385 26.2145" fill="white"/>
</mask>
<g mask="url(#mask0_2128_2577)">
<path d="M52.172 2.80811H18.5194V31.8971H52.172V2.80811Z" fill="url(#paint0_linear_2128_2577)"/>
</g>
<mask id="mask1_2128_2577" style="mask-type:luminance" maskUnits="userSpaceOnUse" x="2" y="19" width="35" height="30">
<path d="M27.0495 48.4317H28.34C31.4907 48.4317 34.0716 45.9044 34.0716 42.7824V38.5207L36.8872 41.2792V39.677L34.0549 36.9019L21.3513 24.447L18.5358 21.6884L16.1392 19.3428H14.6141H13.3069H8.58079C5.43005 19.3428 2.84912 21.8701 2.84912 24.9921V26.264C2.84912 29.3695 5.41329 31.9133 8.58079 31.9133H17.2453V34.6884H18.5525V23.3237L21.3681 26.0823V42.8155C21.3681 45.9209 23.9323 48.4648 27.0998 48.4648" fill="white"/>
</mask>
<g mask="url(#mask1_2128_2577)">
<path d="M36.8872 19.3428H2.8324V48.4317H36.8872V19.3428Z" fill="url(#paint1_linear_2128_2577)"/>
</g>
<path d="M21.335 12.8018L25.1728 16.568L28.0051 19.3431L34.072 25.2732L21.335 12.8018Z" fill="#FCF5DA"/>
<mask id="mask2_2128_2577" style="mask-type:luminance" maskUnits="userSpaceOnUse" x="18" y="0" width="19" height="27">
<path d="M27.0499 0.0165185C22.3238 0.0165185 18.5027 3.78272 18.5027 8.4244L21.3182 11.183V8.4244C21.3182 5.31893 23.8824 2.7751 27.0499 2.7751H28.3404C31.4911 2.7751 34.072 5.30241 34.072 8.4244V23.6544L36.8876 26.413V8.4244C36.8876 3.7662 33.0665 0 28.3404 0H27.0499V0.0165185Z" fill="white"/>
</mask>
<g mask="url(#mask2_2128_2577)">
<path d="M36.8876 0.0166016H18.5194V26.4296H36.8876V0.0166016Z" fill="url(#paint2_linear_2128_2577)"/>
</g>
<mask id="mask3_2128_2577" style="mask-type:luminance" maskUnits="userSpaceOnUse" x="18" y="23" width="19" height="29">
<path d="M18.5194 23.3071V42.7989C18.5194 47.4571 22.3405 51.2233 27.0666 51.2233H28.3571C33.0832 51.2233 36.9043 47.4571 36.9043 42.7989V41.3122L34.0888 38.5536V42.8154C34.0888 45.9209 31.5246 48.4647 28.3571 48.4647H27.0666C23.9159 48.4647 21.335 45.9374 21.335 42.8154V26.0822L18.5194 23.3236V23.3071Z" fill="white"/>
</mask>
<g mask="url(#mask3_2128_2577)">
<path d="M36.8876 23.3071H18.5194V51.2233H36.8876V23.3071Z" fill="url(#paint3_linear_2128_2577)"/>
</g>
<mask id="mask4_2128_2577" style="mask-type:luminance" maskUnits="userSpaceOnUse" x="18" y="10" width="37" height="25">
<path d="M54.9876 26.2476V24.9757C54.9876 20.334 51.1665 16.5513 46.4404 16.5513H38.1781V19.3264H46.4404C49.5911 19.3264 52.172 21.8537 52.172 24.9757V26.2476C52.172 29.3531 49.6079 31.8969 46.4404 31.8969H42.3344H40.8093L36.8708 28.0481L24.0332 15.4776L18.5027 10.0596V13.7597L21.3182 16.5183L21.3853 16.5843L24.2176 19.3594L34.0385 28.9897L36.8541 31.7483L37.0217 31.9134L39.854 34.6885H45.1331H46.4068H46.4404C51.133 34.672 54.9373 30.9058 54.9373 26.2641" fill="white"/>
</mask>
<g mask="url(#mask4_2128_2577)">
<path d="M54.9876 10.043H18.5194V34.6719H54.9876V10.043Z" fill="url(#paint4_linear_2128_2577)"/>
</g>
<mask id="mask5_2128_2577" style="mask-type:luminance" maskUnits="userSpaceOnUse" x="0" y="16" width="37" height="24">
<path d="M36.8871 39.6936V35.9935L35.5296 34.6555L34.0716 33.2349L32.6973 31.8804L21.3345 20.7469L19.8765 19.3264L18.519 17.9884L17.0442 16.5513H8.54722C3.82111 16.5513 0 20.3175 0 24.9757V26.2476C0 30.8893 3.82111 34.672 8.54722 34.672H17.2118V31.8969H8.54722C5.39648 31.8969 2.81556 29.3696 2.81556 26.2476V24.9757C2.81556 21.8702 5.37972 19.3264 8.54722 19.3264H16.1056L18.5022 21.6885L21.3178 24.4471L28.9097 31.8804L31.742 34.6555L34.0213 36.8854L36.8536 39.6771L36.8871 39.6936Z" fill="white"/>
</mask>
<g mask="url(#mask5_2128_2577)">
<path d="M36.8871 16.5679H0.0167236V39.6937H36.8871V16.5679Z" fill="url(#paint5_linear_2128_2577)"/>
</g>
<mask id="mask6_2128_2577" style="mask-type:luminance" maskUnits="userSpaceOnUse" x="18" y="13" width="19" height="24">
<path d="M18.5194 13.7266V18.0048L36.8876 36.0099V31.7316L18.5194 13.7266Z" fill="white"/>
</mask>
<g mask="url(#mask6_2128_2577)">
<path d="M36.8876 13.7266H18.5194V35.9934H36.8876V13.7266Z" fill="url(#paint6_linear_2128_2577)"/>
</g>
<path d="M29.0777 8.24268H26.4465V10.8361H29.0777V8.24268Z" fill="#A56B3F"/>
<path d="M29.0777 41.6099H26.4465V44.2033H29.0777V41.6099Z" fill="#A56B3F"/>
<path d="M12.0842 28.6426H10.8943L8.91672 25.6693V28.6426H7.72681V23.8027H8.91672L10.8943 26.7926V23.8027H12.0842V28.6426Z" fill="#A56B3F"/>
<path d="M46.9424 27.4698C46.7413 27.8332 46.4397 28.1306 46.0542 28.3288C45.6687 28.527 45.2162 28.6426 44.6967 28.6426H42.8364V23.8027H44.6967C45.2162 23.8027 45.6855 23.9018 46.071 24.1001C46.4564 24.2983 46.7413 24.5791 46.9592 24.9425C47.1603 25.3059 47.2609 25.7189 47.2609 26.1979C47.2609 26.6769 47.1603 27.0899 46.9592 27.4533M45.6687 27.222C45.9201 26.9743 46.0542 26.6439 46.0542 26.1979C46.0542 25.7519 45.9201 25.4215 45.6687 25.1738C45.4174 24.926 45.0486 24.8104 44.5961 24.8104H44.0263V27.5689H44.5961C45.0654 27.5689 45.4174 27.4533 45.6687 27.2055V27.222Z" fill="#A56B3F"/>
<path d="M12.0842 28.0314H10.8943L8.91672 25.0746V28.0314H7.72681V23.208H8.91672L10.8943 26.1978V23.208H12.0842V28.0314Z" fill="#EBD8AF"/>
<path d="M46.9424 26.8751C46.7413 27.2385 46.4397 27.5358 46.0542 27.7341C45.6687 27.9323 45.2162 28.0479 44.6967 28.0479H42.8364V23.208H44.6967C45.2162 23.208 45.6855 23.3071 46.071 23.5053C46.4564 23.7036 46.7413 23.9844 46.9592 24.3478C47.1603 24.7112 47.2609 25.1241 47.2609 25.6032C47.2609 26.0822 47.1603 26.4952 46.9592 26.8586M45.6687 26.6273C45.9201 26.3795 46.0542 26.0492 46.0542 25.6032C46.0542 25.1572 45.9201 24.8268 45.6687 24.579C45.4174 24.3313 45.0486 24.2156 44.5961 24.2156H44.0263V26.9742H44.5961C45.0654 26.9742 45.4174 26.8586 45.6687 26.6108V26.6273Z" fill="#EBD8AF"/>
<path d="M29.0777 7.63135H26.4465V10.2247H29.0777V7.63135Z" fill="#EBD8AF"/>
<path d="M29.0777 41.0151H26.4465V43.6085H29.0777V41.0151Z" fill="#EBD8AF"/>
<mask id="mask7_2128_2577" style="mask-type:luminance" maskUnits="userSpaceOnUse" x="63" y="5" width="25" height="28">
<path d="M87.7009 5.66553H77.7795V14.3707L72.0143 5.66553H63.1151V32.4089H73.0366V23.7862L78.8018 32.4089H87.7009V5.66553Z" fill="white"/>
</mask>
<g mask="url(#mask7_2128_2577)">
<path d="M87.7177 5.66553H63.1151V32.4089H87.7177V5.66553Z" fill="url(#paint7_linear_2128_2577)"/>
</g>
<mask id="mask8_2128_2577" style="mask-type:luminance" maskUnits="userSpaceOnUse" x="65" y="7" width="21" height="24">
<path d="M85.4903 7.84619H79.9932V21.7052L70.8091 7.84619H65.3289V30.2287H70.8091V16.4853L79.9932 30.2287H85.4903V7.84619Z" fill="white"/>
</mask>
<g mask="url(#mask8_2128_2577)">
<path d="M85.4903 7.84619H65.3289V30.2121H85.4903V7.84619Z" fill="url(#paint8_linear_2128_2577)"/>
</g>
<mask id="mask9_2128_2577" style="mask-type:luminance" maskUnits="userSpaceOnUse" x="85" y="5" width="31" height="28">
<path d="M95.6951 5.83105L85.7401 32.4092H96.2817L97.6895 28.3292H103.036L104.443 32.4092H115.052L105.097 5.83105H95.6951Z" fill="white"/>
</mask>
<g mask="url(#mask9_2128_2577)">
<path d="M115.052 5.83105H85.7401V32.4092H115.052V5.83105Z" fill="url(#paint9_linear_2128_2577)"/>
</g>
<mask id="mask10_2128_2577" style="mask-type:luminance" maskUnits="userSpaceOnUse" x="88" y="8" width="24" height="23">
<path d="M100.389 13.8092L103.222 22.0354H97.5403L100.406 13.8092H100.389ZM97.2386 8.01123L88.926 30.2285H94.708L96.1157 26.1485H104.629L106.037 30.2285H111.886L103.574 8.01123H97.2554H97.2386Z" fill="white"/>
</mask>
<g mask="url(#mask10_2128_2577)">
<path d="M111.886 8.01123H88.926V30.2285H111.886V8.01123Z" fill="url(#paint10_linear_2128_2577)"/>
</g>
<mask id="mask11_2128_2577" style="mask-type:luminance" maskUnits="userSpaceOnUse" x="113" y="5" width="25" height="28">
<path d="M122.979 14.7837H123.365C124.923 14.7837 126.063 15.1306 126.817 15.8574C127.554 16.5512 127.906 17.5753 127.906 18.9959C127.906 20.4165 127.554 21.4406 126.817 22.1344C126.046 22.8612 124.923 23.2081 123.365 23.2081H122.979V14.8002V14.7837ZM123.851 5.66553H113.058V32.4089H123.851C126.633 32.4089 129.096 31.8472 131.208 30.724C133.37 29.5842 135.046 27.9489 136.202 25.8841C137.342 23.8688 137.912 21.5397 137.912 18.9959C137.912 16.4521 137.342 14.123 136.202 12.1077C135.046 10.0594 133.37 8.44062 131.208 7.31737C129.113 6.22715 126.633 5.66553 123.851 5.66553Z" fill="white"/>
</mask>
<g mask="url(#mask11_2128_2577)">
<path d="M137.912 5.66553H113.058V32.4089H137.912V5.66553Z" fill="url(#paint11_linear_2128_2577)"/>
</g>
<mask id="mask12_2128_2577" style="mask-type:luminance" maskUnits="userSpaceOnUse" x="115" y="7" width="21" height="24">
<path d="M120.768 12.6035H123.366C125.511 12.6035 127.17 13.1651 128.36 14.2884C129.55 15.4116 130.137 16.9809 130.137 18.9961C130.137 21.0114 129.55 22.5971 128.36 23.7039C127.17 24.8271 125.511 25.3888 123.366 25.3888H120.768V12.6035ZM123.852 7.84619H115.288V30.2121H123.852C126.265 30.2121 128.377 29.7331 130.154 28.7916C131.947 27.85 133.304 26.512 134.26 24.8271C135.215 23.1257 135.684 21.1766 135.684 18.9961C135.684 16.8157 135.215 14.8665 134.26 13.1816C133.304 11.4968 131.947 10.1918 130.17 9.25026C128.394 8.32523 126.282 7.86271 123.852 7.86271V7.84619Z" fill="white"/>
</mask>
<g mask="url(#mask12_2128_2577)">
<path d="M135.684 7.84619H115.271V30.2121H135.684V7.84619Z" fill="url(#paint12_linear_2128_2577)"/>
</g>
<mask id="mask13_2128_2577" style="mask-type:luminance" maskUnits="userSpaceOnUse" x="135" y="5" width="22" height="28">
<path d="M156.532 32.4089V23.6706H148.572L156.465 12.6528V5.66553H136.103V14.3707H143.795L135.986 25.4216V32.4089H156.532Z" fill="white"/>
</mask>
<g mask="url(#mask13_2128_2577)">
<path d="M156.532 5.66553H135.986V32.4089H156.532V5.66553Z" fill="url(#paint13_linear_2128_2577)"/>
</g>
<mask id="mask14_2128_2577" style="mask-type:luminance" maskUnits="userSpaceOnUse" x="138" y="7" width="17" height="24">
<path d="M154.32 30.2287V25.8513H144.298L154.253 11.9593V7.84619H138.331V12.1905H148.052L138.197 26.1156V30.2287H154.32Z" fill="white"/>
</mask>
<g mask="url(#mask14_2128_2577)">
<path d="M154.32 7.84619H138.197V30.2121H154.32V7.84619Z" fill="url(#paint14_linear_2128_2577)"/>
</g>
<path d="M160.772 5.64893V6.17752H159.9V8.88654H159.246V6.17752H158.375V5.64893H160.772Z" fill="white"/>
<path d="M164.811 5.64893V8.87002H164.157V6.77218L163.285 8.87002H162.783L161.894 6.77218V8.87002H161.241V5.64893H161.995L163.034 8.0441L164.073 5.64893H164.811Z" fill="white"/>
<defs>
<linearGradient id="paint0_linear_2128_2577" x1="18.5194" y1="17.3443" x2="52.1552" y2="17.3443" gradientUnits="userSpaceOnUse">
<stop stop-color="#331828"/>
<stop offset="0.5" stop-color="#6C2A37"/>
<stop offset="1" stop-color="#331828"/>
</linearGradient>
<linearGradient id="paint1_linear_2128_2577" x1="2.8324" y1="33.8955" x2="36.8872" y2="33.8955" gradientUnits="userSpaceOnUse">
<stop stop-color="#331828"/>
<stop offset="0.5" stop-color="#6C2A37"/>
<stop offset="1" stop-color="#331828"/>
</linearGradient>
<linearGradient id="paint2_linear_2128_2577" x1="27.7035" y1="-7.25151" x2="27.7035" y2="21.2593" gradientUnits="userSpaceOnUse">
<stop stop-color="#A56B3F"/>
<stop offset="0.5" stop-color="#FCF9D6"/>
<stop offset="1" stop-color="#DFB680"/>
</linearGradient>
<linearGradient id="paint3_linear_2128_2577" x1="27.7035" y1="27.0568" x2="27.7035" y2="54.2131" gradientUnits="userSpaceOnUse">
<stop stop-color="#DFB680"/>
<stop offset="0.5" stop-color="#FCF9D6"/>
<stop offset="0.6" stop-color="#EDE0BB"/>
<stop offset="0.7" stop-color="#D3B68F"/>
<stop offset="0.8" stop-color="#BF956C"/>
<stop offset="0.9" stop-color="#A86F44"/>
<stop offset="1" stop-color="#A56B3F"/>
</linearGradient>
<linearGradient id="paint4_linear_2128_2577" x1="36.7535" y1="9.56393" x2="36.7535" y2="38.1408" gradientUnits="userSpaceOnUse">
<stop stop-color="#DFB680"/>
<stop offset="0.5" stop-color="#FCF9D6"/>
<stop offset="0.7" stop-color="#D6BC95"/>
<stop offset="0.8" stop-color="#BB9066"/>
<stop offset="0.9" stop-color="#AB7549"/>
<stop offset="1" stop-color="#A56B3F"/>
</linearGradient>
<linearGradient id="paint5_linear_2128_2577" x1="18.4519" y1="41.3125" x2="18.4519" y2="12.686" gradientUnits="userSpaceOnUse">
<stop stop-color="#A56B3F"/>
<stop offset="0.5" stop-color="#FCF9D6"/>
<stop offset="1" stop-color="#DFB680"/>
</linearGradient>
<linearGradient id="paint6_linear_2128_2577" x1="-5.54689" y1="24.8765" x2="36.8876" y2="24.8765" gradientUnits="userSpaceOnUse">
<stop stop-color="#331828"/>
<stop offset="0.5" stop-color="#6C2A37"/>
<stop offset="1" stop-color="#331828"/>
</linearGradient>
<linearGradient id="paint7_linear_2128_2577" x1="75.3996" y1="4.57531" x2="75.3996" y2="34.1268" gradientUnits="userSpaceOnUse">
<stop stop-color="#A56B3F"/>
<stop offset="0.2" stop-color="#FCF9D6"/>
<stop offset="1" stop-color="#DFB680"/>
</linearGradient>
<linearGradient id="paint8_linear_2128_2577" x1="75.4012" y1="6.9542" x2="75.4012" y2="31.6492" gradientUnits="userSpaceOnUse">
<stop stop-color="#331828"/>
<stop offset="0.5" stop-color="#6C2A37"/>
<stop offset="1" stop-color="#331828"/>
</linearGradient>
<linearGradient id="paint9_linear_2128_2577" x1="100.404" y1="4.54262" x2="100.404" y2="34.1271" gradientUnits="userSpaceOnUse">
<stop stop-color="#A56B3F"/>
<stop offset="0.2" stop-color="#FCF9D6"/>
<stop offset="1" stop-color="#DFB680"/>
</linearGradient>
<linearGradient id="paint10_linear_2128_2577" x1="100.406" y1="6.95405" x2="100.406" y2="31.6491" gradientUnits="userSpaceOnUse">
<stop stop-color="#331828"/>
<stop offset="0.5" stop-color="#6C2A37"/>
<stop offset="1" stop-color="#331828"/>
</linearGradient>
<linearGradient id="paint11_linear_2128_2577" x1="125.493" y1="4.57531" x2="125.493" y2="34.1268" gradientUnits="userSpaceOnUse">
<stop stop-color="#A56B3F"/>
<stop offset="0.2" stop-color="#FCF9D6"/>
<stop offset="1" stop-color="#DFB680"/>
</linearGradient>
<linearGradient id="paint12_linear_2128_2577" x1="125.495" y1="6.9542" x2="125.495" y2="31.6492" gradientUnits="userSpaceOnUse">
<stop stop-color="#331828"/>
<stop offset="0.5" stop-color="#6C2A37"/>
<stop offset="1" stop-color="#331828"/>
</linearGradient>
<linearGradient id="paint13_linear_2128_2577" x1="146.259" y1="4.57531" x2="146.259" y2="34.1268" gradientUnits="userSpaceOnUse">
<stop stop-color="#A56B3F"/>
<stop offset="0.2" stop-color="#FCF9D6"/>
<stop offset="1" stop-color="#DFB680"/>
</linearGradient>
<linearGradient id="paint14_linear_2128_2577" x1="146.258" y1="6.9542" x2="146.258" y2="31.6492" gradientUnits="userSpaceOnUse">
<stop stop-color="#331828"/>
<stop offset="0.5" stop-color="#6C2A37"/>
<stop offset="1" stop-color="#331828"/>
</linearGradient>
</defs>
</svg>
