<svg width="402" height="650" viewBox="0 170 402 650" fill="none" xmlns="http://www.w3.org/2000/svg">
<rect x="0" y="170" width="402" height="650" fill="white"/>
<rect x="8" y="504" width="107" height="22" rx="2" stroke="black" stroke-opacity="0.5" stroke-linecap="round" stroke-linejoin="round" stroke-dasharray="2 2"/>
<rect x="8" y="461" width="107" height="22" rx="2" stroke="black" stroke-opacity="0.5" stroke-linecap="round" stroke-linejoin="round" stroke-dasharray="2 2"/>
<rect x="8" y="549" width="107" height="22" rx="2" fill="#D3C9C9" fill-opacity="0.69" stroke="black" stroke-opacity="0.14" stroke-linecap="round" stroke-linejoin="round"/>
<rect x="9" y="654" width="107" height="28" rx="2" fill="#D3C9C9" fill-opacity="0.69" stroke="black" stroke-opacity="0.14" stroke-linecap="round" stroke-linejoin="round"/>
<rect x="8" y="599" width="108" height="24" rx="2" fill="#D3C9C9" fill-opacity="0.69" stroke="black" stroke-opacity="0.14" stroke-linecap="round" stroke-linejoin="round"/>
<rect x="283" y="657" width="108" height="30" rx="2" fill="#D3C9C9" fill-opacity="0.69" stroke="black" stroke-opacity="0.14" stroke-linecap="round" stroke-linejoin="round"/>
<rect x="283" y="613" width="108" height="30" rx="2" fill="#D3C9C9" fill-opacity="0.69" stroke="black" stroke-opacity="0.14" stroke-linecap="round" stroke-linejoin="round"/>
<rect x="283" y="569" width="108" height="30" rx="2" fill="#D3C9C9" fill-opacity="0.69" stroke="black" stroke-opacity="0.14" stroke-linecap="round" stroke-linejoin="round"/>
<rect x="8" y="319" width="107" height="22" rx="2" fill="#D3C9C9" fill-opacity="0.69" stroke="black" stroke-opacity="0.14" stroke-linecap="round" stroke-linejoin="round"/>
<rect x="248" y="250" width="98" height="22" rx="2" fill="#D3C9C9" fill-opacity="0.69" stroke="black" stroke-opacity="0.14" stroke-linecap="round" stroke-linejoin="round"/>
<rect x="283" y="286" width="108" height="22" rx="2" fill="#D3C9C9" fill-opacity="0.69" stroke="black" stroke-opacity="0.14" stroke-linecap="round" stroke-linejoin="round"/>
<rect x="144" y="285" width="74" height="22" rx="2" fill="#D3C9C9" fill-opacity="0.69" stroke="black" stroke-opacity="0.14" stroke-linecap="round" stroke-linejoin="round"/>
<rect x="165" y="529" width="86" height="22" rx="2" fill="#D3C9C9" fill-opacity="0.69" stroke="black" stroke-opacity="0.14" stroke-linecap="round" stroke-linejoin="round"/>
<rect x="165" y="565" width="86" height="22" rx="2" fill="#D3C9C9" fill-opacity="0.69" stroke="black" stroke-opacity="0.14" stroke-linecap="round" stroke-linejoin="round"/>
<rect x="165" y="598" width="86" height="22" rx="2" fill="#D3C9C9" fill-opacity="0.69" stroke="black" stroke-opacity="0.14" stroke-linecap="round" stroke-linejoin="round"/>
<rect x="231" y="178" width="84" height="30" rx="2" stroke="black" stroke-opacity="0.5" stroke-linecap="round" stroke-linejoin="round" stroke-dasharray="2 2"/>
<rect x="8" y="367" width="107" height="22" rx="2" stroke="black" stroke-opacity="0.5" stroke-linecap="round" stroke-linejoin="round" stroke-dasharray="2 2"/>
<rect x="283" y="325" width="108" height="32" rx="2" stroke="black" stroke-opacity="0.5" stroke-linecap="round" stroke-linejoin="round" stroke-dasharray="2 2"/>
<rect x="283" y="374" width="108" height="32" rx="2" stroke="black" stroke-opacity="0.5" stroke-linecap="round" stroke-linejoin="round" stroke-dasharray="2 2"/>
<rect x="283" y="423" width="108" height="32" rx="2" stroke="black" stroke-opacity="0.5" stroke-linecap="round" stroke-linejoin="round" stroke-dasharray="2 2"/>
<rect x="283" y="472" width="108" height="32" rx="2" stroke="black" stroke-opacity="0.5" stroke-linecap="round" stroke-linejoin="round" stroke-dasharray="2 2"/>
<rect x="283" y="521" width="108" height="30" rx="2" stroke="black" stroke-opacity="0.5" stroke-linecap="round" stroke-linejoin="round" stroke-dasharray="2 2"/>
<rect x="8" y="419" width="107" height="22" rx="2" stroke="black" stroke-opacity="0.5" stroke-linecap="round" stroke-linejoin="round" stroke-dasharray="2 2"/>
<rect x="150" y="657" width="102" height="20" rx="2" stroke="black" stroke-opacity="0.5" stroke-linecap="round" stroke-linejoin="round" stroke-dasharray="2 2"/>
<rect x="150" y="702" width="102" height="20" rx="2" stroke="black" stroke-opacity="0.5" stroke-linecap="round" stroke-linejoin="round" stroke-dasharray="2 2"/>
<rect x="150" y="747" width="102" height="20" rx="2" stroke="black" stroke-opacity="0.5" stroke-linecap="round" stroke-linejoin="round" stroke-dasharray="2 2"/>
<rect x="9" y="712" width="107" height="38" rx="2" stroke="black" stroke-opacity="0.5" stroke-linecap="round" stroke-linejoin="round" stroke-dasharray="2 2"/>
<rect x="9" y="773" width="107" height="38" rx="2" stroke="black" stroke-opacity="0.5" stroke-linecap="round" stroke-linejoin="round" stroke-dasharray="2 2"/>
<rect x="133" y="236" width="74" height="30" rx="2" stroke="black" stroke-opacity="0.5" stroke-linecap="round" stroke-linejoin="round" stroke-dasharray="2 2"/>
<rect x="8" y="236" width="94" height="30" rx="2" stroke="black" stroke-opacity="0.5" stroke-linecap="round" stroke-linejoin="round" stroke-dasharray="2 2"/>
<rect x="132" y="190" width="74" height="22" rx="2" stroke="black" stroke-opacity="0.5" stroke-linecap="round" stroke-linejoin="round" stroke-dasharray="2 2"/>
<line x1="150" y1="667.5" x2="133" y2="667.5" stroke="black" stroke-opacity="0.5" stroke-dasharray="2 2"/>
<line x1="150" y1="712.5" x2="133" y2="712.5" stroke="black" stroke-opacity="0.5" stroke-dasharray="2 2"/>
<line x1="150" y1="757.5" x2="133" y2="757.5" stroke="black" stroke-opacity="0.5" stroke-dasharray="2 2"/>
<line x1="133" y1="667.5" x2="116" y2="667.5" stroke="black" stroke-opacity="0.5" stroke-dasharray="2 2"/>
<line x1="139" y1="560.5" x2="115" y2="560.5" stroke="black" stroke-opacity="0.5"/>
<line x1="337.5" y1="613" x2="337.5" y2="599" stroke="black" stroke-opacity="0.5"/>
<line x1="337.5" y1="657" x2="337.5" y2="643" stroke="black" stroke-opacity="0.5"/>
<line x1="338.5" y1="325" x2="338.5" y2="308" stroke="black" stroke-opacity="0.5" stroke-dasharray="2 2"/>
<line x1="338.5" y1="374" x2="338.5" y2="357" stroke="black" stroke-opacity="0.5" stroke-dasharray="2 2"/>
<line x1="338.5" y1="423" x2="338.5" y2="406" stroke="black" stroke-opacity="0.5" stroke-dasharray="2 2"/>
<line x1="338.5" y1="472" x2="338.5" y2="455" stroke="black" stroke-opacity="0.5" stroke-dasharray="2 2"/>
<line x1="338.5" y1="521" x2="338.5" y2="504" stroke="black" stroke-opacity="0.5" stroke-dasharray="2 2"/>
<line x1="139" y1="330.5" x2="115" y2="330.5" stroke="black" stroke-opacity="0.5"/>
<line x1="152" y1="436.5" x2="139" y2="436.5" stroke="black" stroke-opacity="0.5"/>
<line x1="152" y1="450.5" x2="139" y2="450.5" stroke="black" stroke-opacity="0.5"/>
<line x1="249" y1="262.5" x2="226" y2="262.5" stroke="black" stroke-opacity="0.5"/>
<line x1="169.5" y1="285" x2="169.5" y2="266" stroke="black" stroke-opacity="0.5" stroke-dasharray="2 2"/>
<line x1="54.5" y1="296" x2="54.5" y2="266" stroke="black" stroke-opacity="0.5" stroke-dasharray="2 2"/>
<line x1="55" y1="295.5" x2="145" y2="295.5" stroke="black" stroke-opacity="0.5" stroke-dasharray="2 2"/>
<line x1="217" y1="196.5" x2="231" y2="196.5" stroke="black" stroke-opacity="0.5" stroke-dasharray="2 2"/>
<line y1="-0.5" x2="88" y2="-0.5" transform="matrix(-7.54979e-08 -1 -1 7.54979e-08 217 285)" stroke="black" stroke-opacity="0.5" stroke-dasharray="2 2"/>
<line x1="169.5" y1="236" x2="169.5" y2="212" stroke="black" stroke-opacity="0.5" stroke-dasharray="2 2"/>
<line x1="60.5" y1="367" x2="60.5" y2="341" stroke="black" stroke-opacity="0.5"/>
<line x1="63.5" y1="712" x2="63.5" y2="682" stroke="black" stroke-opacity="0.5" stroke-dasharray="2 2"/>
<line x1="63.5" y1="654" x2="63.5" y2="623" stroke="black" stroke-opacity="0.5"/>
<line x1="63.5" y1="599" x2="63.5" y2="571" stroke="black" stroke-opacity="0.5"/>
<line x1="60.5" y1="419" x2="60.5" y2="389" stroke="black" stroke-opacity="0.5" stroke-dasharray="2 2"/>
<line x1="60.5" y1="461" x2="60.5" y2="441" stroke="black" stroke-opacity="0.5" stroke-dasharray="2 2"/>
<line x1="60.5" y1="504" x2="60.5" y2="483" stroke="black" stroke-opacity="0.5" stroke-dasharray="2 2"/>
<line x1="63.5" y1="773" x2="63.5" y2="752" stroke="black" stroke-opacity="0.5" stroke-dasharray="2 2"/>
<line x1="139.5" y1="330" x2="139.5" y2="436" stroke="black" stroke-opacity="0.5"/>
<line x1="201.5" y1="308" x2="201.5" y2="388" stroke="black" stroke-opacity="0.5"/>
<line x1="139.5" y1="451" x2="139.5" y2="561" stroke="black" stroke-opacity="0.5"/>
<line x1="261" y1="436.5" x2="248" y2="436.5" stroke="black" stroke-opacity="0.5"/>
<line x1="283" y1="296.5" x2="260" y2="296.5" stroke="black" stroke-opacity="0.5"/>
<line x1="260.5" y1="296" x2="260.5" y2="437" stroke="black" stroke-opacity="0.5"/>
<line x1="261" y1="587.5" x2="283" y2="587.5" stroke="black" stroke-opacity="0.5"/>
<line x1="238" y1="458.5" x2="262" y2="458.5" stroke="black" stroke-opacity="0.5"/>
<line x1="261.5" y1="459" x2="261.5" y2="587" stroke="black" stroke-opacity="0.5"/>
<line x1="154" y1="539.5" x2="165" y2="539.5" stroke="black" stroke-opacity="0.5"/>
<line x1="154" y1="610.5" x2="165" y2="610.5" stroke="black" stroke-opacity="0.5"/>
<line x1="154" y1="575.5" x2="165" y2="575.5" stroke="black" stroke-opacity="0.5"/>
<line x1="153.5" y1="481" x2="153.5" y2="611" stroke="black" stroke-opacity="0.5"/>
<line x1="226.5" y1="262" x2="226.5" y2="387" stroke="black" stroke-opacity="0.5"/>
<line x1="133.5" y1="667" x2="133.5" y2="758" stroke="black" stroke-opacity="0.5" stroke-dasharray="2 2"/>
<rect x="151" y="387" width="100" height="96" rx="6" fill="#FBFBFB"/>
<rect x="151.25" y="387.25" width="99.5" height="95.5" rx="5.75" stroke="#020043" stroke-opacity="0.2" stroke-width="0.5"/>
<path d="M226.237 425.395H215.414V429.049H226.237C230.373 429.049 233.76 432.377 233.76 436.488V438.163C233.76 442.252 230.395 445.601 226.237 445.601H220.847H218.846L213.676 440.533L196.825 423.981L189.566 416.847V421.719L193.262 425.352L193.35 425.439L197.067 429.093L209.958 441.773L213.654 445.406L213.874 445.623L217.592 449.277H224.521H226.193H226.237C232.396 449.255 237.39 444.296 237.39 438.184V436.51C237.39 430.398 232.374 425.417 226.171 425.417" fill="#A56B3F"/>
<path d="M210.002 447.363L208.198 445.58L193.283 430.92L191.369 429.05L189.587 427.288L187.651 425.396H176.498C170.295 425.396 165.279 430.355 165.279 436.488V438.163C165.279 444.275 170.295 449.256 176.498 449.256H187.871V445.602H176.498C172.363 445.602 168.975 442.274 168.975 438.163V436.488C168.975 432.399 172.341 429.05 176.498 429.05H186.42L189.565 432.16L193.261 435.792L203.226 445.58L206.944 449.234L209.936 452.17L213.653 455.846V450.974L211.872 449.212L209.958 447.342L210.002 447.363Z" fill="#A56B3F"/>
<path d="M210.002 460.218C210.002 464.307 206.637 467.656 202.479 467.656H200.785C196.649 467.656 193.262 464.329 193.262 460.218V438.185L189.566 434.552V460.218C189.566 466.351 194.582 471.311 200.785 471.311H202.479C208.682 471.311 213.698 466.351 213.698 460.218V458.26L210.002 454.628V460.24V460.218Z" fill="#A56B3F"/>
<mask id="mask0_2098_2178" style="mask-type:luminance" maskUnits="userSpaceOnUse" x="189" y="406" width="45" height="39">
<path d="M233.738 436.923V435.248C233.738 431.159 230.372 427.809 226.215 427.809H215.369V424.155H213.654V437.14L209.958 433.508V413.454C209.958 409.365 206.592 406.015 202.434 406.015H200.741C196.605 406.015 193.217 409.343 193.217 413.454V417.086L189.521 413.454V415.564L196.781 422.698L213.632 439.25L218.801 444.318H220.803H226.193C230.328 444.318 233.716 440.99 233.716 436.879" fill="white"/>
</mask>
<g mask="url(#mask0_2098_2178)">
<path d="M233.761 406.059H189.588V444.362H233.761V406.059Z" fill="url(#paint0_linear_2098_2178)"/>
</g>
<mask id="mask1_2098_2178" style="mask-type:luminance" maskUnits="userSpaceOnUse" x="169" y="427" width="45" height="40">
<path d="M200.784 466.133H202.478C206.614 466.133 210.002 462.805 210.002 458.694V453.083L213.697 456.715V454.605L209.98 450.951L193.305 434.551L189.609 430.919L186.464 427.831H184.462H182.746H176.542C172.407 427.831 169.019 431.158 169.019 435.269V436.944C169.019 441.033 172.385 444.383 176.542 444.383H187.916V448.037H189.631V433.072L193.327 436.705V458.738C193.327 462.827 196.693 466.177 200.85 466.177" fill="white"/>
</mask>
<g mask="url(#mask1_2098_2178)">
<path d="M213.698 427.831H168.998V466.133H213.698V427.831Z" fill="url(#paint1_linear_2098_2178)"/>
</g>
<path d="M193.284 419.218L198.321 424.177L202.039 427.831L210.002 435.64L193.284 419.218Z" fill="#FCF5DA"/>
<mask id="mask2_2098_2178" style="mask-type:luminance" maskUnits="userSpaceOnUse" x="189" y="402" width="25" height="36">
<path d="M200.785 402.384C194.582 402.384 189.566 407.343 189.566 413.455L193.262 417.087V413.455C193.262 409.365 196.627 406.016 200.785 406.016H202.479C206.615 406.016 210.002 409.344 210.002 413.455V433.509L213.698 437.141V413.455C213.698 407.321 208.682 402.362 202.479 402.362H200.785V402.384Z" fill="white"/>
</mask>
<g mask="url(#mask2_2098_2178)">
<path d="M213.698 402.383H189.588V437.162H213.698V402.383Z" fill="url(#paint2_linear_2098_2178)"/>
</g>
<mask id="mask3_2098_2178" style="mask-type:luminance" maskUnits="userSpaceOnUse" x="189" y="433" width="25" height="37">
<path d="M189.588 433.051V458.717C189.588 464.85 194.604 469.81 200.807 469.81H202.501C208.705 469.81 213.72 464.85 213.72 458.717V456.759L210.025 453.127V458.739C210.025 462.828 206.659 466.177 202.501 466.177H200.807C196.672 466.177 193.284 462.849 193.284 458.739V436.705L189.588 433.073V433.051Z" fill="white"/>
</mask>
<g mask="url(#mask3_2098_2178)">
<path d="M213.698 433.051H189.588V469.81H213.698V433.051Z" fill="url(#paint3_linear_2098_2178)"/>
</g>
<mask id="mask4_2098_2178" style="mask-type:luminance" maskUnits="userSpaceOnUse" x="189" y="415" width="49" height="34">
<path d="M237.456 436.923V435.248C237.456 429.136 232.44 424.155 226.237 424.155H215.392V427.809H226.237C230.373 427.809 233.76 431.137 233.76 435.248V436.923C233.76 441.012 230.395 444.362 226.237 444.362H220.847H218.846L213.676 439.294L196.825 422.742L189.566 415.607V420.48L193.262 424.112L193.35 424.199L197.067 427.853L209.958 440.533L213.654 444.166L213.874 444.383L217.592 448.037H224.521H226.193H226.237C232.396 448.016 237.39 443.057 237.39 436.945" fill="white"/>
</mask>
<g mask="url(#mask4_2098_2178)">
<path d="M237.456 415.586H189.588V448.016H237.456V415.586Z" fill="url(#paint4_linear_2098_2178)"/>
</g>
<mask id="mask5_2098_2178" style="mask-type:luminance" maskUnits="userSpaceOnUse" x="165" y="424" width="49" height="31">
<path d="M213.697 454.628V449.756L211.916 447.994L210.002 446.123L208.198 444.34L193.283 429.68L191.369 427.809L189.587 426.048L187.651 424.155H176.498C170.295 424.155 165.279 429.114 165.279 435.248V436.923C165.279 443.035 170.295 448.016 176.498 448.016H187.871V444.361H176.498C172.363 444.361 168.975 441.034 168.975 436.923V435.248C168.975 431.159 172.341 427.809 176.498 427.809H186.42L189.565 430.92L193.261 434.552L203.226 444.34L206.944 447.994L209.936 450.93L213.653 454.606L213.697 454.628Z" fill="white"/>
</mask>
<g mask="url(#mask5_2098_2178)">
<path d="M213.697 424.177H165.301V454.628H213.697V424.177Z" fill="url(#paint5_linear_2098_2178)"/>
</g>
<mask id="mask6_2098_2178" style="mask-type:luminance" maskUnits="userSpaceOnUse" x="189" y="420" width="25" height="30">
<path d="M189.588 420.436V426.069L213.698 449.777V444.144L189.588 420.436Z" fill="white"/>
</mask>
<g mask="url(#mask6_2098_2178)">
<path d="M213.698 420.436H189.588V449.756H213.698V420.436Z" fill="url(#paint6_linear_2098_2178)"/>
</g>
<path d="M203.446 413.215H199.993V416.63H203.446V413.215Z" fill="#A56B3F"/>
<path d="M203.446 457.151H199.993V460.566H203.446V457.151Z" fill="#A56B3F"/>
<path d="M181.141 440.077H179.58L176.984 436.162V440.077H175.422V433.704H176.984L179.58 437.641V433.704H181.141V440.077Z" fill="#A56B3F"/>
<path d="M226.896 438.533C226.632 439.011 226.236 439.403 225.73 439.664C225.224 439.925 224.63 440.077 223.948 440.077H221.506V433.704H223.948C224.63 433.704 225.246 433.835 225.752 434.096C226.258 434.357 226.632 434.726 226.918 435.205C227.182 435.683 227.314 436.227 227.314 436.858C227.314 437.489 227.182 438.032 226.918 438.511M225.224 438.206C225.554 437.88 225.73 437.445 225.73 436.858C225.73 436.271 225.554 435.836 225.224 435.509C224.894 435.183 224.41 435.031 223.816 435.031H223.068V438.663H223.816C224.432 438.663 224.894 438.511 225.224 438.185V438.206Z" fill="#A56B3F"/>
<path d="M181.141 439.272H179.58L176.984 435.378V439.272H175.422V432.92H176.984L179.58 436.857V432.92H181.141V439.272Z" fill="#EBD8AF"/>
<path d="M226.896 437.749C226.632 438.228 226.236 438.619 225.73 438.88C225.224 439.141 224.63 439.293 223.948 439.293H221.506V432.92H223.948C224.63 432.92 225.246 433.051 225.752 433.312C226.258 433.573 226.632 433.943 226.918 434.421C227.182 434.9 227.314 435.443 227.314 436.074C227.314 436.705 227.182 437.249 226.918 437.727M225.224 437.423C225.554 437.097 225.73 436.661 225.73 436.074C225.73 435.487 225.554 435.052 225.224 434.726C224.894 434.399 224.41 434.247 223.816 434.247H223.068V437.88H223.816C224.432 437.88 224.894 437.727 225.224 437.401V437.423Z" fill="#EBD8AF"/>
<path d="M203.446 412.41H199.993V415.825H203.446V412.41Z" fill="#EBD8AF"/>
<path d="M203.446 456.368H199.993V459.782H203.446V456.368Z" fill="#EBD8AF"/>
<defs>
<linearGradient id="paint0_linear_2098_2178" x1="189.588" y1="425.2" x2="233.739" y2="425.2" gradientUnits="userSpaceOnUse">
<stop stop-color="#331828"/>
<stop offset="0.5" stop-color="#6C2A37"/>
<stop offset="1" stop-color="#331828"/>
</linearGradient>
<linearGradient id="paint1_linear_2098_2178" x1="168.998" y1="446.993" x2="213.698" y2="446.993" gradientUnits="userSpaceOnUse">
<stop stop-color="#331828"/>
<stop offset="0.5" stop-color="#6C2A37"/>
<stop offset="1" stop-color="#331828"/>
</linearGradient>
<linearGradient id="paint2_linear_2098_2178" x1="201.643" y1="392.813" x2="201.643" y2="430.354" gradientUnits="userSpaceOnUse">
<stop stop-color="#A56B3F"/>
<stop offset="0.5" stop-color="#FCF9D6"/>
<stop offset="1" stop-color="#DFB680"/>
</linearGradient>
<linearGradient id="paint3_linear_2098_2178" x1="201.643" y1="437.989" x2="201.643" y2="473.746" gradientUnits="userSpaceOnUse">
<stop stop-color="#DFB680"/>
<stop offset="0.5" stop-color="#FCF9D6"/>
<stop offset="0.6" stop-color="#EDE0BB"/>
<stop offset="0.7" stop-color="#D3B68F"/>
<stop offset="0.8" stop-color="#BF956C"/>
<stop offset="0.9" stop-color="#A86F44"/>
<stop offset="1" stop-color="#A56B3F"/>
</linearGradient>
<linearGradient id="paint4_linear_2098_2178" x1="213.522" y1="414.955" x2="213.522" y2="452.584" gradientUnits="userSpaceOnUse">
<stop stop-color="#DFB680"/>
<stop offset="0.5" stop-color="#FCF9D6"/>
<stop offset="0.7" stop-color="#D6BC95"/>
<stop offset="0.8" stop-color="#BB9066"/>
<stop offset="0.9" stop-color="#AB7549"/>
<stop offset="1" stop-color="#A56B3F"/>
</linearGradient>
<linearGradient id="paint5_linear_2098_2178" x1="189.499" y1="456.759" x2="189.499" y2="419.066" gradientUnits="userSpaceOnUse">
<stop stop-color="#A56B3F"/>
<stop offset="0.5" stop-color="#FCF9D6"/>
<stop offset="1" stop-color="#DFB680"/>
</linearGradient>
<linearGradient id="paint6_linear_2098_2178" x1="157.999" y1="435.118" x2="213.698" y2="435.118" gradientUnits="userSpaceOnUse">
<stop stop-color="#331828"/>
<stop offset="0.5" stop-color="#6C2A37"/>
<stop offset="1" stop-color="#331828"/>
</linearGradient>
</defs>
</svg>
