<svg width="2099" height="1128" viewBox="0 0 2099 1128" fill="none" xmlns="http://www.w3.org/2000/svg">
<rect width="2099" height="1128" fill="white"/>
<rect x="477" y="359" width="326" height="67" rx="6" fill="#FBFBFB"/>
<rect x="477.25" y="359.25" width="325.5" height="66.5" rx="5.75" stroke="#020043" stroke-opacity="0.2" stroke-width="0.5"/>
<rect x="880" y="685" width="326" height="67" rx="6" fill="#FBFBFB"/>
<rect x="880.25" y="685.25" width="325.5" height="66.5" rx="5.75" stroke="#020043" stroke-opacity="0.2" stroke-width="0.5"/>
<rect x="1297" y="912" width="326" height="67" rx="6" fill="#FBFBFB"/>
<rect x="1297.25" y="912.25" width="325.5" height="66.5" rx="5.75" stroke="#020043" stroke-opacity="0.2" stroke-width="0.5"/>
<rect x="1297" y="730" width="326" height="67" rx="6" fill="#FBFBFB"/>
<rect x="1297.25" y="730.25" width="325.5" height="66.5" rx="5.75" stroke="#020043" stroke-opacity="0.2" stroke-width="0.5"/>
<rect x="1677" y="730" width="326" height="67" rx="6" fill="#FBFBFB"/>
<rect x="1677.25" y="730.25" width="325.5" height="66.5" rx="5.75" stroke="#020043" stroke-opacity="0.2" stroke-width="0.5"/>
<rect x="1677" y="823" width="326" height="84" rx="6" fill="#FBFBFB"/>
<rect x="1677.25" y="823.25" width="325.5" height="83.5" rx="5.75" stroke="#020043" stroke-opacity="0.2" stroke-width="0.5"/>
<rect x="1297" y="824" width="326" height="67" rx="6" fill="#FBFBFB"/>
<rect x="1297.25" y="824.25" width="325.5" height="66.5" rx="5.75" stroke="#020043" stroke-opacity="0.2" stroke-width="0.5"/>
<rect x="880" y="332" width="326" height="67" rx="6" fill="#FBFBFB"/>
<rect x="880.25" y="332.25" width="325.5" height="66.5" rx="5.75" stroke="#020043" stroke-opacity="0.2" stroke-width="0.5"/>
<rect x="914" y="426" width="246" height="234" rx="6" fill="#FBFBFB"/>
<rect x="914.25" y="426.25" width="245.5" height="233.5" rx="5.75" stroke="#020043" stroke-opacity="0.2" stroke-width="0.5"/>
<rect x="477" y="450" width="326" height="67" rx="6" fill="#FBFBFB"/>
<rect x="477.25" y="450.25" width="325.5" height="66.5" rx="5.75" stroke="#020043" stroke-opacity="0.2" stroke-width="0.5"/>
<rect x="477" y="733" width="326" height="67" rx="6" fill="#FBFBFB"/>
<rect x="477.25" y="733.25" width="325.5" height="66.5" rx="5.75" stroke="#020043" stroke-opacity="0.2" stroke-width="0.5"/>
<rect x="477" y="821" width="326" height="67" rx="6" fill="#FBFBFB"/>
<rect x="477.25" y="821.25" width="325.5" height="66.5" rx="5.75" stroke="#020043" stroke-opacity="0.2" stroke-width="0.5"/>
<rect x="477" y="905" width="326" height="67" rx="6" fill="#FBFBFB"/>
<rect x="477.25" y="905.25" width="325.5" height="66.5" rx="5.75" stroke="#020043" stroke-opacity="0.2" stroke-width="0.5"/>
<rect x="1297" y="359" width="326" height="67" rx="6" fill="#FBFBFB"/>
<rect x="1297.25" y="359.25" width="325.5" height="66.5" rx="5.75" stroke="#020043" stroke-opacity="0.2" stroke-width="0.5"/>
<rect x="477.5" y="541.5" width="325" height="66" rx="5.5" stroke="#6C2A37" stroke-dasharray="5 5"/>
<rect x="880.5" y="775.5" width="325" height="66" rx="5.5" stroke="#6C2A37" stroke-dasharray="5 5"/>
<rect x="1297.5" y="450.5" width="325" height="66" rx="5.5" stroke="#6C2A37" stroke-dasharray="5 5"/>
<rect x="893.5" y="136.5" width="325" height="66" rx="5.5" stroke="#6C2A37" stroke-dasharray="5 5"/>
<rect x="880.5" y="863.5" width="325" height="66" rx="5.5" stroke="#6C2A37" stroke-dasharray="5 5"/>
<rect x="1297.5" y="538.5" width="325" height="66" rx="5.5" stroke="#6C2A37" stroke-dasharray="5 5"/>
<rect x="632.5" y="236.5" width="260" height="66" rx="5.5" stroke="#6C2A37" stroke-dasharray="5 5"/>
<rect x="918.5" y="236.5" width="260" height="66" rx="5.5" stroke="#6C2A37" stroke-dasharray="5 5"/>
<rect x="1205.5" y="236.5" width="260" height="66" rx="5.5" stroke="#6C2A37" stroke-dasharray="5 5"/>
<rect x="91.5" y="590.5" width="325" height="66" rx="5.5" stroke="#6C2A37" stroke-dasharray="5 5"/>
<rect x="880.5" y="951.5" width="325" height="66" rx="5.5" stroke="#6C2A37" stroke-dasharray="5 5"/>
<rect x="1297.5" y="626.5" width="325" height="66" rx="5.5" stroke="#6C2A37" stroke-dasharray="5 5"/>
<rect x="477.5" y="639.5" width="325" height="66" rx="5.5" stroke="#6C2A37" stroke-dasharray="5 5"/>
<rect x="91.5" y="800.5" width="325" height="66" rx="5.5" stroke="#6C2A37" stroke-dasharray="5 5"/>
<rect x="91.5" y="885.5" width="325" height="66" rx="5.5" stroke="#6C2A37" stroke-dasharray="5 5"/>
<rect x="1677.5" y="363.5" width="325" height="66" rx="5.5" stroke="#6C2A37" stroke-dasharray="5 5"/>
<rect x="1677.5" y="450.5" width="325" height="66" rx="5.5" stroke="#6C2A37" stroke-dasharray="5 5"/>
<rect x="91.5" y="490.5" width="325" height="66" rx="5.5" stroke="#6C2A37" stroke-dasharray="5 5"/>
<!-- card text labels are injected at runtime by ServicesSection -->
<path d="M477 484H440V670H477" stroke="#6C2A37" stroke-dasharray="5 5"/>
<path d="M880 805H843V991H880" stroke="#6C2A37" stroke-dasharray="5 5"/>
<path d="M1677 394H1640V482H1677" stroke="#6C2A37" stroke-dasharray="5 5"/>
<path d="M418 838H455V925H418" stroke="#6C2A37" stroke-dasharray="5 5"/>
<path d="M1297 393H1260V657H1297" stroke="#6C2A37" stroke-dasharray="5 5"/>
<path d="M880 342L762 342L762 305" stroke="#6C2A37" stroke-dasharray="5 5"/>
<path d="M1206 342L1324 342L1324 305" stroke="#6C2A37" stroke-dasharray="5 5"/>
<path d="M1050 333L1050 304" stroke="#6C2A37" stroke-dasharray="5 5"/>
<path d="M1050 232L1050 203" stroke="#6C2A37" stroke-dasharray="5 5"/>
<line x1="417" y1="623.5" x2="440" y2="623.5" stroke="#6C2A37" stroke-dasharray="5 5"/>
<line x1="803" y1="855.5" x2="843" y2="855.5" stroke="#6C2A37" stroke-dasharray="5 5"/>
<line x1="1260" y1="572.5" x2="1297" y2="572.5" stroke="#6C2A37" stroke-dasharray="5 5"/>
<line x1="440" y1="576.5" x2="477" y2="576.5" stroke="#6C2A37" stroke-dasharray="5 5"/>
<line x1="843" y1="897.5" x2="880" y2="897.5" stroke="#6C2A37" stroke-dasharray="5 5"/>
<path d="M454.5 859.5H477" stroke="#6C2A37" stroke-dasharray="5 5"/>
<line x1="1260" y1="485.5" x2="1297" y2="485.5" stroke="#6C2A37" stroke-dasharray="5 5"/>
<line x1="417" y1="524.5" x2="440" y2="524.5" stroke="#6C2A37" stroke-dasharray="5 5"/>
<line x1="1623" y1="393.5" x2="1640" y2="393.5" stroke="#6C2A37" stroke-dasharray="5 5"/>
<path d="M803 394H856V466H914.5" stroke="#020043" stroke-opacity="0.14"/>
<path d="M802 770H839.076V610.5H912.5" stroke="#020043" stroke-opacity="0.14"/>
<path d="M1296.5 381L1232.5 381V453H1160" stroke="#020043" stroke-opacity="0.14"/>
<path d="M1296.5 760L1232.5 760L1232.5 673H1135.5V659.5" stroke="#020043" stroke-opacity="0.14"/>
<path d="M1233 759L1233 951L1297 951" stroke="#020043" stroke-opacity="0.14"/>
<path d="M914 486H803" stroke="#020043" stroke-opacity="0.14"/>
<path d="M640 800L640 821" stroke="#020043" stroke-opacity="0.14"/>
<path d="M1037 660L1037 685" stroke="#020043" stroke-opacity="0.14"/>
<path d="M1234 856H1297" stroke="#020043" stroke-opacity="0.14"/>
<path d="M1623 764H1677" stroke="#020043" stroke-opacity="0.14"/>
<path d="M1851 797L1851 823" stroke="#020043" stroke-opacity="0.14"/>
<path d="M640 888L640 905" stroke="#020043" stroke-opacity="0.14"/>
<path d="M2028.5 326.269V1050.5H71.5V326.269L1049.23 55.5176L2028.5 326.269Z" stroke="#E9E9E9"/>
<path d="M1098.41 519.457H1071.88V528.414H1098.41C1108.55 528.414 1116.85 536.571 1116.85 546.647V550.752C1116.85 560.774 1108.6 568.985 1098.41 568.985H1085.2H1080.3L1067.62 556.563L1026.32 515.992L1008.53 498.506V510.448L1017.59 519.351L1017.8 519.564L1026.92 528.52L1058.51 559.602L1067.57 568.505L1068.11 569.038L1077.22 577.994H1094.21H1098.3H1098.41C1113.51 577.941 1125.75 565.786 1125.75 550.805V546.7C1125.75 531.719 1113.46 519.511 1098.25 519.511" fill="#A56B3F"/>
<path d="M1058.62 573.304L1054.2 568.932L1017.64 533L1012.95 528.415L1008.58 524.097L1003.84 519.458H976.499C961.294 519.458 949 531.614 949 546.648V550.753C949 565.734 961.294 577.942 976.499 577.942H1004.38V568.986H976.499C966.362 568.986 958.058 560.829 958.058 550.753V546.648C958.058 536.625 966.308 528.415 976.499 528.415H1000.82L1008.53 536.039L1017.59 544.942L1042.01 568.932L1051.12 577.889L1058.46 585.086L1067.57 594.096V582.154L1063.2 577.835L1058.51 573.251L1058.62 573.304Z" fill="#A56B3F"/>
<path d="M1058.62 604.811C1058.62 614.833 1050.37 623.043 1040.18 623.043H1036.03C1025.89 623.043 1017.59 614.887 1017.59 604.811V550.805L1008.53 541.902V604.811C1008.53 619.845 1020.82 632 1036.03 632H1040.18C1055.38 632 1067.68 619.845 1067.68 604.811V600.013L1058.62 591.109V604.864V604.811Z" fill="#A56B3F"/>
<mask id="mask0_1918_1138" style="mask-type:luminance" maskUnits="userSpaceOnUse" x="1008" y="471" width="109" height="95">
<path d="M1116.8 547.713V543.608C1116.8 533.585 1108.55 525.375 1098.36 525.375H1071.78V516.418H1067.57V548.246L1058.51 539.343V490.189C1058.51 480.166 1050.26 471.956 1040.07 471.956H1035.92C1025.78 471.956 1017.48 480.113 1017.48 490.189V499.092L1008.42 490.189V495.36L1026.21 512.846L1067.52 553.417L1080.19 565.839H1085.09H1098.3C1108.44 565.839 1116.75 557.682 1116.75 547.606" fill="white"/>
</mask>
<g mask="url(#mask0_1918_1138)">
<path d="M1116.85 472.063H1008.58V565.946H1116.85V472.063Z" fill="url(#paint0_linear_1918_1138)"/>
</g>
<mask id="mask1_1918_1138" style="mask-type:luminance" maskUnits="userSpaceOnUse" x="958" y="525" width="110" height="95">
<path d="M1036.03 619.311H1040.18C1050.32 619.311 1058.62 611.154 1058.62 601.078V587.324L1067.68 596.227V591.055L1058.56 582.099L1017.69 541.901L1008.64 532.998L1000.92 525.428H996.018H991.812H976.607C966.47 525.428 958.167 533.585 958.167 543.661V547.766C958.167 557.789 966.416 565.999 976.607 565.999H1004.48V574.955H1008.69V538.276L1017.75 547.179V601.185C1017.75 611.208 1026 619.418 1036.19 619.418" fill="white"/>
</mask>
<g mask="url(#mask1_1918_1138)">
<path d="M1067.68 525.428H958.113V619.311H1067.68V525.428Z" fill="url(#paint1_linear_1918_1138)"/>
</g>
<path d="M1017.64 504.318L1029.99 516.473L1039.1 525.43L1058.62 544.569L1017.64 504.318Z" fill="#FCF5DA"/>
<mask id="mask2_1918_1138" style="mask-type:luminance" maskUnits="userSpaceOnUse" x="1008" y="463" width="60" height="86">
<path d="M1036.03 463.053C1020.82 463.053 1008.53 475.209 1008.53 490.189L1017.59 499.092V490.189C1017.59 480.167 1025.84 471.956 1036.03 471.956H1040.18C1050.32 471.956 1058.62 480.113 1058.62 490.189V539.343L1067.68 548.246V490.189C1067.68 475.155 1055.38 463 1040.18 463H1036.03V463.053Z" fill="white"/>
</mask>
<g mask="url(#mask2_1918_1138)">
<path d="M1067.68 463.053H1008.58V548.299H1067.68V463.053Z" fill="url(#paint2_linear_1918_1138)"/>
</g>
<mask id="mask3_1918_1138" style="mask-type:luminance" maskUnits="userSpaceOnUse" x="1008" y="538" width="60" height="91">
<path d="M1008.58 538.223V601.132C1008.58 616.166 1020.88 628.321 1036.08 628.321H1040.23C1055.44 628.321 1067.73 616.166 1067.73 601.132V596.334L1058.67 587.431V601.185C1058.67 611.208 1050.42 619.418 1040.23 619.418H1036.08C1025.94 619.418 1017.64 611.261 1017.64 601.185V547.18L1008.58 538.277V538.223Z" fill="white"/>
</mask>
<g mask="url(#mask3_1918_1138)">
<path d="M1067.68 538.223H1008.58V628.321H1067.68V538.223Z" fill="url(#paint3_linear_1918_1138)"/>
</g>
<mask id="mask4_1918_1138" style="mask-type:luminance" maskUnits="userSpaceOnUse" x="1008" y="495" width="118" height="80">
<path d="M1125.91 547.714V543.609C1125.91 528.628 1113.62 516.42 1098.41 516.42H1071.83V525.376H1098.41C1108.55 525.376 1116.85 533.533 1116.85 543.609V547.714C1116.85 557.737 1108.6 565.947 1098.41 565.947H1085.2H1080.3L1067.62 553.525L1026.32 512.954L1008.53 495.468V507.41L1017.59 516.313L1017.8 516.526L1026.92 525.483L1058.51 556.564L1067.57 565.467L1068.11 566L1077.22 574.957H1094.21H1098.3H1098.41C1113.51 574.903 1125.75 562.748 1125.75 547.767" fill="white"/>
</mask>
<g mask="url(#mask4_1918_1138)">
<path d="M1125.91 495.415H1008.58V574.904H1125.91V495.415Z" fill="url(#paint4_linear_1918_1138)"/>
</g>
<mask id="mask5_1918_1138" style="mask-type:luminance" maskUnits="userSpaceOnUse" x="949" y="516" width="119" height="76">
<path d="M1067.68 591.11V579.168L1063.31 574.849L1058.62 570.265L1054.2 565.893L1017.64 529.961L1012.95 525.376L1008.58 521.057L1003.84 516.419H976.499C961.294 516.419 949 528.574 949 543.608V547.714C949 562.694 961.294 574.903 976.499 574.903H1004.38V565.946H976.499C966.362 565.946 958.058 557.79 958.058 547.714V543.608C958.058 533.586 966.308 525.376 976.499 525.376H1000.82L1008.53 532.999L1017.59 541.902L1042.01 565.893L1051.12 574.849L1058.46 582.047L1067.57 591.056L1067.68 591.11Z" fill="white"/>
</mask>
<g mask="url(#mask5_1918_1138)">
<path d="M1067.68 516.472H949.054V591.109H1067.68V516.472Z" fill="url(#paint5_linear_1918_1138)"/>
</g>
<mask id="mask6_1918_1138" style="mask-type:luminance" maskUnits="userSpaceOnUse" x="1008" y="507" width="60" height="73">
<path d="M1008.58 507.302V521.11L1067.68 579.221V565.413L1008.58 507.302Z" fill="white"/>
</mask>
<g mask="url(#mask6_1918_1138)">
<path d="M1067.68 507.302H1008.58V579.168H1067.68V507.302Z" fill="url(#paint6_linear_1918_1138)"/>
</g>
<path d="M1042.55 489.603H1034.09V497.973H1042.55V489.603Z" fill="#A56B3F"/>
<path d="M1042.55 597.294H1034.09V605.664H1042.55V597.294Z" fill="#A56B3F"/>
<path d="M987.879 555.444H984.05L977.688 545.848V555.444H973.86V539.823H977.688L984.05 549.473V539.823H987.879V555.444Z" fill="#A56B3F"/>
<path d="M1100.03 551.659C1099.38 552.831 1098.41 553.791 1097.17 554.431C1095.93 555.071 1094.47 555.444 1092.8 555.444H1086.82V539.823H1092.8C1094.47 539.823 1095.98 540.143 1097.22 540.783C1098.46 541.423 1099.38 542.329 1100.08 543.502C1100.73 544.675 1101.05 546.007 1101.05 547.554C1101.05 549.1 1100.73 550.432 1100.08 551.605M1095.93 550.859C1096.74 550.059 1097.17 548.993 1097.17 547.554C1097.17 546.114 1096.74 545.048 1095.93 544.248C1095.12 543.448 1093.93 543.075 1092.48 543.075H1090.65V551.978H1092.48C1093.99 551.978 1095.12 551.605 1095.93 550.806V550.859Z" fill="#A56B3F"/>
<path d="M987.879 553.471H984.05L977.688 543.928V553.471H973.86V537.904H977.688L984.05 547.553V537.904H987.879V553.471Z" fill="#EBD8AF"/>
<path d="M1100.03 549.739C1099.38 550.912 1098.41 551.872 1097.17 552.511C1095.93 553.151 1094.47 553.524 1092.8 553.524H1086.82V537.904H1092.8C1094.47 537.904 1095.98 538.224 1097.22 538.863C1098.46 539.503 1099.38 540.409 1100.08 541.582C1100.73 542.755 1101.05 544.088 1101.05 545.634C1101.05 547.18 1100.73 548.513 1100.08 549.686M1095.93 548.939C1096.74 548.14 1097.17 547.074 1097.17 545.634C1097.17 544.195 1096.74 543.128 1095.93 542.329C1095.12 541.529 1093.93 541.156 1092.48 541.156H1090.65V550.059H1092.48C1093.99 550.059 1095.12 549.686 1095.93 548.886V548.939Z" fill="#EBD8AF"/>
<path d="M1042.55 487.63H1034.09V496H1042.55V487.63Z" fill="#EBD8AF"/>
<path d="M1042.55 595.374H1034.09V603.744H1042.55V595.374Z" fill="#EBD8AF"/>
<g filter="url(#filter0_f_1918_1138)"><circle cx="871.5" cy="610.5" r="8.5" fill="#AA0000" fill-opacity="0.55"/></g>
<g filter="url(#filter1_f_1918_1138)"><circle cx="871.5" cy="465.5" r="8.5" fill="#AA0000" fill-opacity="0.55"/></g>
<g filter="url(#filter2_f_1918_1138)"><circle cx="831.5" cy="485.5" r="8.5" fill="#AA0000" fill-opacity="0.55"/></g>
<g filter="url(#filter3_f_1918_1138)"><circle cx="1204.5" cy="452.5" r="8.5" fill="#AA0000" fill-opacity="0.55"/></g>
<circle cx="871.5" cy="610.5" r="5.5" fill="#DB0000"/>
<circle cx="871.5" cy="465.5" r="5.5" fill="#DB0000"/>
<circle cx="831.5" cy="485.5" r="5.5" fill="#DB0000"/>
<circle cx="1204.5" cy="452.5" r="5.5" fill="#DB0000"/>
<g clip-path="url(#nadzEmblemClip)"><g transform="skewX(-18)"><rect class="nadz-emblem-glare" x="945" y="435" width="42" height="230" fill="url(#nadzGlareGrad)"/></g></g>
<defs>
<linearGradient id="nadzMaroonGrad" x1="0" y1="0" x2="1" y2="1"><stop offset="0" stop-color="#6c2a37"/><stop offset="1" stop-color="#37151b"/></linearGradient>
<linearGradient id="nadzGlareGrad" x1="0" y1="0" x2="1" y2="0"><stop offset="0" stop-color="#ffffff" stop-opacity="0"/><stop offset="0.5" stop-color="#ffffff" stop-opacity="0.8"/><stop offset="1" stop-color="#ffffff" stop-opacity="0"/></linearGradient>
<clipPath id="nadzEmblemClip"><circle cx="1037" cy="547" r="98"/></clipPath>
<filter id="filter0_f_1918_1138" x="859" y="598" width="25" height="25" filterUnits="userSpaceOnUse" color-interpolation-filters="sRGB"><feFlood flood-opacity="0" result="BackgroundImageFix"/><feBlend mode="normal" in="SourceGraphic" in2="BackgroundImageFix" result="shape"/><feGaussianBlur stdDeviation="2" result="effect1_foregroundBlur_1918_1138"/></filter>
<filter id="filter1_f_1918_1138" x="859" y="453" width="25" height="25" filterUnits="userSpaceOnUse" color-interpolation-filters="sRGB"><feFlood flood-opacity="0" result="BackgroundImageFix"/><feBlend mode="normal" in="SourceGraphic" in2="BackgroundImageFix" result="shape"/><feGaussianBlur stdDeviation="2" result="effect1_foregroundBlur_1918_1138"/></filter>
<filter id="filter2_f_1918_1138" x="819" y="473" width="25" height="25" filterUnits="userSpaceOnUse" color-interpolation-filters="sRGB"><feFlood flood-opacity="0" result="BackgroundImageFix"/><feBlend mode="normal" in="SourceGraphic" in2="BackgroundImageFix" result="shape"/><feGaussianBlur stdDeviation="2" result="effect1_foregroundBlur_1918_1138"/></filter>
<filter id="filter3_f_1918_1138" x="1192" y="440" width="25" height="25" filterUnits="userSpaceOnUse" color-interpolation-filters="sRGB"><feFlood flood-opacity="0" result="BackgroundImageFix"/><feBlend mode="normal" in="SourceGraphic" in2="BackgroundImageFix" result="shape"/><feGaussianBlur stdDeviation="2" result="effect1_foregroundBlur_1918_1138"/></filter>
<linearGradient id="paint0_linear_1918_1138" x1="1008.58" y1="518.978" x2="1116.8" y2="518.978" gradientUnits="userSpaceOnUse"><stop stop-color="#331828"/><stop offset="0.5" stop-color="#6C2A37"/><stop offset="1" stop-color="#331828"/></linearGradient>
<linearGradient id="paint1_linear_1918_1138" x1="958.113" y1="572.396" x2="1067.68" y2="572.396" gradientUnits="userSpaceOnUse"><stop stop-color="#331828"/><stop offset="0.5" stop-color="#6C2A37"/><stop offset="1" stop-color="#331828"/></linearGradient>
<linearGradient id="paint2_linear_1918_1138" x1="1038.13" y1="439.596" x2="1038.13" y2="531.613" gradientUnits="userSpaceOnUse"><stop stop-color="#A56B3F"/><stop offset="0.5" stop-color="#FCF9D6"/><stop offset="1" stop-color="#DFB680"/></linearGradient>
<linearGradient id="paint3_linear_1918_1138" x1="1038.13" y1="550.325" x2="1038.13" y2="637.971" gradientUnits="userSpaceOnUse"><stop stop-color="#DFB680"/><stop offset="0.5" stop-color="#FCF9D6"/><stop offset="0.6" stop-color="#EDE0BB"/><stop offset="0.7" stop-color="#D3B68F"/><stop offset="0.8" stop-color="#BF956C"/><stop offset="0.9" stop-color="#A86F44"/><stop offset="1" stop-color="#A56B3F"/></linearGradient>
<linearGradient id="paint4_linear_1918_1138" x1="1067.25" y1="493.869" x2="1067.25" y2="586.099" gradientUnits="userSpaceOnUse"><stop stop-color="#DFB680"/><stop offset="0.5" stop-color="#FCF9D6"/><stop offset="0.7" stop-color="#D6BC95"/><stop offset="0.8" stop-color="#BB9066"/><stop offset="0.9" stop-color="#AB7549"/><stop offset="1" stop-color="#A56B3F"/></linearGradient>
<linearGradient id="paint5_linear_1918_1138" x1="1008.37" y1="596.334" x2="1008.37" y2="503.944" gradientUnits="userSpaceOnUse"><stop stop-color="#A56B3F"/><stop offset="0.5" stop-color="#FCF9D6"/><stop offset="1" stop-color="#DFB680"/></linearGradient>
<linearGradient id="paint6_linear_1918_1138" x1="931.154" y1="543.288" x2="1067.68" y2="543.288" gradientUnits="userSpaceOnUse"><stop stop-color="#331828"/><stop offset="0.5" stop-color="#6C2A37"/><stop offset="1" stop-color="#331828"/></linearGradient>
</defs>
</svg>
